<?xml version="1.0" encoding="utf-8"?>
<svg version="1.1" width="3156.5215748620435" height="884.3468979705457" viewBox="0 0 3156.5215748620435 884.3468979705457" xmlns="http://www.w3.org/2000/svg">
  <g transform="scale(7.826078743102173) translate(10, 10)">
    <g id="SvgjsG2072" featurekey="symbolGroupContainer" transform="matrix(1,0,0,1,0,0)" fill="#fff">
      <rect width="103" height="93" rx="8"/>
    </g>
    <g id="SvgjsG2073" featurekey="symbolFeature-0" transform="matrix(0.08974358974358974,0,0,0.08974358974358974,20.08974358974359,15.08974358974359)" fill="#000000">
      <g xmlns="http://www.w3.org/2000/svg">
        <title>background</title>
        <rect x="-1" y="-1" width="702" height="702" style="fill: none;"/>
      </g>
      <g xmlns="http://www.w3.org/2000/svg">
        <title>Layer 1</title>
        <g>
          <g>
            <path d="M222,158.3c-31,0.7-57.5,21-79.5,60.8c-23.1,44.8-34.5,94.6-34.3,149.4c0.4,6.6,1.1,7.2,2.2,1.9     c9.3-40.3,19-71.8,29.1-94.6c9.9-22.9,20.9-41.7,32.9-56.2c27.6-32.1,51.5-37.3,71.8-15.6c22.2,25.6,34,68.8,35.4,129.4     c-1.2,81.5-11.9,143.1-32.1,185c-25.3,51-51.3,68-77.7,50.8c-36-28.7-56-92.3-60-190.6c-1.4-3.4-2.7-0.9-3.7,7.5     c-1.9,10.2-3.2,21.4-4,33.3c-3,53.4,4.1,98.7,21.2,135.9c17.5,35.3,40.8,53.2,69.9,53.8c31.4-0.5,60-21,85.9-61.7     c25.8-42.5,42.4-94.3,49.7-155.6c2.7-65.2-6.1-120.7-26.3-166.5c-20.4-43.6-47.1-66-80-67.2"/>
          </g>
          <g>
            <path d="M452,134.1c-16.1-26.4-46.9-39.3-92.4-38.5c-50.3,2.4-99.2,17.4-146.6,45c-5.5,3.6-5.7,4.6-0.6,2.9     c39.6-12.1,71.7-19.5,96.4-22.1c24.8-2.9,46.5-2.8,65.1,0.4c41.6,7.9,58.1,26,49.4,54.4c-11.1,32-42.6,63.8-94.4,95.4     c-71.2,39.7-129.9,61.3-176.2,64.7c-56.9,3.6-84.5-10.4-82.8-41.9C77,248.8,122,199.7,205.1,147c2.2-2.9-0.6-2.7-8.3,0.6     c-9.8,3.5-20.1,7.9-30.9,13.2c-47.7,24.1-83.5,52.9-107.1,86.3c-21.8,32.8-25.7,62-11.7,87.4c16.1,26.9,48.2,41.4,96.4,43.5     c49.7,1.1,102.9-10.4,159.6-34.8c57.8-30.3,101.5-65.6,131-106c27.6-39.5,33.6-73.8,18.2-102.9"/>
          </g>
          <g>
            <path d="M588,321.2c14.8-27.2,10.6-60.3-12.9-99.3c-27.3-42.4-64.7-77.2-112.3-104.4c-5.9-3-6.8-2.7-2.8,0.9     c30.3,28.2,52.7,52.4,67.4,72.4c14.9,20.1,25.7,38.9,32.2,56.6c14,40,6.5,63.3-22.4,69.9c-33.3,6.4-76.5-5-129.8-34     c-69.9-41.8-118-81.9-144.2-120.2c-31.5-47.5-33.2-78.4-5.1-92.7c42.9-16.8,107.9-2.3,195.1,43.4c3.6,0.4,2.1-1.9-4.7-6.9     c-7.9-6.8-16.9-13.5-26.9-20.2c-44.7-29.3-87.5-45.8-128.3-49.6c-39.3-2.5-66.5,8.7-81.6,33.6c-15.3,27.4-11.8,62.5,10.5,105.2     c23.9,43.6,60.5,83.9,109.9,120.8c55.1,34.9,107.6,55.1,157.3,60.4c48,4.1,80.8-7.8,98.2-35.7"/>
          </g>
          <g>
            <path d="M494,532.5c31-0.7,57.5-21,79.5-60.8c23.1-44.8,34.5-94.6,34.3-149.4c-0.4-6.6-1.1-7.2-2.2-1.9     c-9.3,40.3-19,71.8-29.1,94.6c-9.9,22.9-20.9,41.7-32.9,56.2c-27.6,32.1-51.5,37.3-71.8,15.6c-22.2-25.6-34-68.8-35.4-129.4     c1.2-81.5,11.9-143.1,32.1-185c25.3-51,51.3-68,77.7-50.8c36,28.7,56,92.3,60,190.6c1.4,3.4,2.7,0.9,3.7-7.5     c1.9-10.2,3.2-21.4,4-33.3c3-53.4-4.1-98.7-21.2-135.9c-17.5-35.3-40.8-53.2-69.9-53.8c-31.4,0.5-60,21-85.9,61.7     c-25.8,42.5-42.4,94.3-49.7,155.6c-2.7,65.2,6.1,120.7,26.3,166.5c20.4,43.6,47.1,66,80,67.2"/>
          </g>
          <g>
            <path d="M128,369.6c-14.8,27.2-10.6,60.3,12.9,99.3c27.3,42.4,64.7,77.2,112.3,104.4c5.9,3,6.8,2.7,2.8-0.9     c-30.3-28.2-52.7-52.4-67.4-72.4c-14.9-20.1-25.7-38.9-32.2-56.6c-14-40-6.5-63.3,22.4-69.9c33.3-6.4,76.5,5,129.8,34     c69.9,41.8,118,81.9,144.2,120.2c31.5,47.5,33.2,78.4,5.1,92.7c-42.9,16.8-107.9,2.3-195.1-43.4c-3.6-0.4-2.1,1.9,4.7,6.9     c7.9,6.8,16.9,13.5,26.9,20.2c44.7,29.3,87.5,45.8,128.3,49.6c39.3,2.5,66.5-8.7,81.6-33.6c15.3-27.4,11.8-62.5-10.5-105.2     c-23.9-43.6-60.5-83.9-109.9-120.8c-55.1-34.9-107.6-55.1-157.3-60.4c-48-4.1-80.8,7.8-98.2,35.7"/>
          </g>
          <g>
            <path d="M264,556.7c16.1,26.4,46.9,39.3,92.4,38.5c50.3-2.4,99.2-17.4,146.6-45c5.5-3.6,5.7-4.6,0.6-2.9     c-39.6,12.1-71.7,19.5-96.4,22.1c-24.8,2.9-46.5,2.8-65.1-0.4c-41.6-7.9-58.1-26-49.4-54.4c11.1-32,42.6-63.8,94.4-95.4     c71.2-39.7,129.9-61.3,176.2-64.7c56.9-3.6,84.5,10.4,82.8,41.9c-6.9,45.5-51.9,94.6-135.1,147.3c-2.2,2.9,0.6,2.7,8.3-0.6     c9.8-3.5,20.1-7.9,30.9-13.2c47.7-24.1,83.5-52.9,107.1-86.3c21.8-32.8,25.7-62,11.7-87.4c-16.1-26.9-48.2-41.4-96.3-43.5     c-49.7-1.1-102.9,10.4-159.6,34.8c-57.8,30.3-101.5,65.6-131,106c-27.6,39.5-33.6,73.8-18.2,102.9"/>
          </g>
        </g>
      </g>
    </g>
    <g id="SvgjsG2075" featurekey="nameLeftFeature-0" transform="matrix(2.251512, 0, 0, 2.528618, 132.407379, -17.429115)" fill="#fff" style="">
      <path d="M18.84 32.64 c0.24 -0.52 0.44 -1.04 0.64 -1.56 c0.44 -1.28 0.52 -2.6 0.64 -3.92 c0.24 -2.8 0.16 -5.64 -0.56 -8.36 c-0.88 -3.48 -3.12 -6.68 -6.48 -8.16 c-1.52 -0.68 -3.24 -0.76 -4.88 -0.72 c-1.72 0 -3.48 -0.08 -5.2 0.08 c-0.48 0.04 -0.72 0.28 -0.8 0.72 c-0.08 0.48 -0.16 0.96 -0.16 1.4 c0.08 2.44 0 9.68 0.08 10.88 c0.04 1.08 -0.08 2.4 -0.08 3.48 c0.04 2.68 0 5.4 0 8.08 c0 1.12 -0.04 2.2 -0.04 3.32 c0 1.2 -0.44 1.72 2.84 1.72 c2.92 0 5.96 -0.24 8.72 -1.28 c2.56 -0.92 4.16 -3.28 5.28 -5.68 z M7.2 28.48 l0 -4.8 c0 -3.04 0.08 -5 -0.04 -7.56 l0 -0.48 c0.04 -0.84 0.16 -0.88 1.04 -0.88 c1.16 -0.04 2 0.24 3 0.64 s1.56 1.28 2.08 2.12 c1 1.64 1.4 3.44 1.48 5.32 c0.04 1.08 0.08 2.16 0.08 3.24 c0 5.12 -3 8.68 -5.64 8.68 c-1.76 0 -2.04 0.12 -2.04 -1.04 c0 -1.2 0.08 -2.4 0.08 -3.6 c-0.04 -0.52 -0.04 -1.08 -0.04 -1.64 z"/>
    </g>
    <g id="SvgjsG2076" featurekey="inlineSymbolFeature-0" transform="matrix(0.835874, 0, 0, 0.93875, 178.659744, -1.783292)" fill="#fff" style="">
      <path xmlns="http://www.w3.org/2000/svg" d="M50,10L10,90h80L50,10z M50,24.909L72.546,70H42.36l3.333-6.667h16.064L50,39.814L31.575,76.667h44.304l3.333,6.666H20.788  L50,24.909z"/>
    </g>
    <g id="SvgjsG2077" featurekey="nameRightFeature-0" transform="matrix(2.193722, 0, 0, 2.463715, 258.788391, -16.091349)" fill="#fff" style="">
      <path d="M19.88 33.28 c0.04 1.92 0 3.88 -0.12 5.8 c0 0.16 -0.12 0.32 -0.24 0.4 c-0.16 0.12 -0.36 0.2 -0.56 0.2 c-2.48 0.4 -5.48 0.6 -7.88 -0.2 c-5.4 -1.84 -9.08 -7.88 -9.08 -14.8 c0 -7.48 5.36 -14.76 13.16 -15.04 c1.04 -0.04 4.6 -0.2 4.48 1.56 c-0.08 1.28 0.04 2.32 0 3.64 c0 0.24 -0.16 0.4 -0.4 0.36 c-2.28 -0.28 -4.88 -1 -7.08 0.04 c-1.84 0.88 -3.12 2.76 -3.84 4.6 c-1.28 3.04 -1 6.56 -0.12 9.68 c0.68 2.48 2.16 5.4 5.12 5.48 c0.16 0.04 1.68 0.12 1.68 -0.04 l-0.12 -5.12 c-0.04 -0.24 -0.04 -0.48 -0.08 -0.72 s-0.2 -0.32 -0.44 -0.36 c-0.64 0 -0.64 -0.04 -1.28 -0.04 c-1.48 0 -1.16 -1 -1.2 -1.32 c-0.04 -0.6 0 -1.16 -0.04 -1.76 c-0.04 -0.56 0.12 -1 0.68 -1.08 l0.48 0 c2.08 -0.12 4.2 0.04 6.4 0.04 c0.32 0 0.48 0.4 0.48 0.76 c0.04 0.4 0.04 0.68 0.04 1.08 c0.12 1.96 -0.12 3.96 -0.08 5.92 c0.04 0.32 0.04 0.6 0.04 0.92 z M23.96 16.56 c0 4.04 0.04 8.12 0.12 12.12 c0.04 2.44 0 5.2 1.16 7.44 c1.48 2.88 4.76 4.16 7.92 3.96 c2.16 -0.16 4.16 -0.72 5.72 -2.32 c2.64 -2.84 2.12 -7.28 2.16 -10.92 c0.08 -5.24 0.2 -10.12 0.2 -15.4 c0 -0.88 -0.28 -1.36 -1.16 -1.4 c-1.08 -0.04 -2.16 0 -3.24 0.08 c-0.44 0 -0.8 0.4 -0.8 0.88 c0.04 3.84 0.12 7.72 0.08 11.6 c-0.04 3.32 0.4 7 -0.84 10.16 c-0.48 1.16 -1.56 2.04 -2.84 2.04 c-3.2 -0.08 -3.08 -3.88 -3.2 -6.12 c-0.24 -4.88 0.12 -9.88 0.24 -14.76 c0 -0.92 0 -1.84 0.04 -2.76 c0.04 -0.48 0.12 -1.08 -0.52 -1.12 l-0.72 0 c-1 0.08 -2 -0.04 -3 0 c-0.96 0.08 -1.28 0.36 -1.28 1.32 c0 1.72 -0.04 3.48 -0.04 5.2 z"/>
    </g>
  </g>
</svg>