<?xml version="1.0" encoding="UTF-8"?><svg xmlns="http://www.w3.org/2000/svg" xmlns:xlink="http://www.w3.org/1999/xlink" viewBox="0 0 1190.55 841.89"><defs><style>.cls-1{fill:#f4b4d0;}.cls-2{fill:#f7c9dd;}.cls-3{fill:#f7b86d;}.cls-4{fill:#f8b62d;}.cls-5{fill:#0075c2;}.cls-6{fill:#e95377;}.cls-7{fill:#e60012;}.cls-8{fill:#fff9b1;}.cls-9,.cls-10{fill:#fff;}.cls-11{fill:#ffe100;}.cls-12{fill:#f39939;}.cls-13{fill:#ee869a;}.cls-14{fill:#fdd35c;}.cls-15{fill:#9fa0a0;}.cls-16{fill:#9fd9f6;}.cls-17{fill:#b7cdda;}.cls-18{fill:#bba1cb;}.cls-19{fill:#bae3f9;}.cls-20{fill:#9070af;}.cls-21{fill:#c9caca;}.cls-22{fill:#c92d3f;}.cls-23{fill:#d3edfb;}.cls-24{fill:#96a9b3;}.cls-25{fill:url(#_名称未設定グラデーション_25);}.cls-10{opacity:.58;}</style><linearGradient id="_名称未設定グラデーション_25" x1="595.55" y1="-1.68" x2="594.15" y2="832.96" gradientUnits="userSpaceOnUse"><stop offset=".2" stop-color="#3b065d"/><stop offset=".5" stop-color="#ce93bf"/><stop offset=".8" stop-color="#3b065d"/></linearGradient></defs><g id="_レイヤー_6"><rect class="cls-25" x="-1.43" y="-2.1" width="1192.54" height="845.82"/></g><g id="_レイヤー_1"><circle class="cls-20" cx="330.14" cy="410.02" r="239.99"/><path class="cls-23" d="m330.14,652.84c-64.86,0-125.84-25.26-171.7-71.12-45.86-45.86-71.12-106.84-71.12-171.7s25.26-125.84,71.12-171.7,106.84-71.12,171.7-71.12,125.84,25.26,171.7,71.12,71.12,106.84,71.12,171.7-25.26,125.84-71.12,171.7c-45.86,45.86-106.84,71.12-171.7,71.12Zm0-479.98c-63.35,0-122.9,24.67-167.69,69.46-44.79,44.79-69.46,104.35-69.46,167.69s24.67,122.9,69.46,167.69c44.79,44.79,104.35,69.46,167.69,69.46s122.9-24.67,167.69-69.46c44.79-44.79,69.46-104.35,69.46-167.69s-24.67-122.9-69.46-167.69-104.35-69.46-167.69-69.46Z"/><path class="cls-18" d="m330.14,622.41c-56.73,0-110.07-22.09-150.18-62.21-40.12-40.12-62.21-93.45-62.21-150.18s22.09-110.07,62.21-150.18c40.12-40.12,93.45-62.21,150.18-62.21s110.07,22.09,150.18,62.21,62.21,93.45,62.21,150.18-22.09,110.07-62.21,150.18c-40.12,40.12-93.45,62.21-150.18,62.21Z"/><path class="cls-9" d="m529.63,482.49l-.1.07-.23-1.29c-1.42-7.96-4.68-15.03-9.17-19.9l-.21-.23v-.31c-.22-6.14-2.41-12.95-6.19-19.18-5.68-9.36-14.28-16.05-21.9-17.05l-.26-.03-.19-.18c-1.57-1.45-3.1-2.47-4.54-3.06l-.15-.06-.12-.11c-5.82-5.58-13.49-12.23-20-17.34l-.37-.29.06-.47c10.27-75.44-4.84-141.07-42.54-184.79l-.07-.08c-19.65-22.79-53.92-35.86-94.02-35.86s-74.38,13.07-94.02,35.87l-.07.08c-27.41,31.79-57.03,89.78-42.5,185.47l.07.48-.38.3c-6.01,4.72-12.01,9.93-17.85,15.48l.57.58-1.58.25c-1.98.31-4.11,1.51-6.35,3.57l-.19.18-.26.03c-7.62,1-16.22,7.69-21.9,17.05-3.98,6.55-6.19,13.65-6.22,19.98,0,.83.03,1.68.11,2.51l.02.23s-.72,1.44-1.04,2.09c-.4.79-.77,1.54-.98,1.97-.44.91-.89,1.8-1.33,2.69-2.08,4.16-4.05,8.09-4.79,12.91-3.08,14.77-1.81,25.12.04,36.17,1.82,10.92,11.93,22,29.22,32.03l.28.16.1.31c3.86,12.52,13.6,24.49,25.4,31.25,13.11,7.51,29.67,11.64,46.63,11.64,6.81,0,13.54-.65,20.04-1.93l-.29-2.58,1.85,2.56c5.58,7.73,13.38,14.59,22.57,19.85,14.3,8.19,32.44,12.52,52.45,12.52s39.65-4.39,53.69-12.36c8.95-5.08,16.5-12.03,21.84-20.11l.3-.46.54.1c6.19,1.16,15.19,2.4,21.92,2.4,16.97,0,33.53-4.13,46.63-11.64,11.81-6.76,21.54-18.74,25.4-31.25l.1-.31.28-.16c17.3-10.03,27.4-21.11,29.22-32.03,2.19-13.1,3.1-24.59.5-37.72Zm-65.18-82.91c-8.15-9.31-28.97-17.37-57.71-22.88-2.75-9.21-5.56-15.69-6.55-17.87.01-.04.02-.06.02-.06,1.37-1.46-1.19-5.5-2.65-6.86-1.35-1.26-3.87-3.48-5.53-3.36-.49.03-1.05.23-1.66.58-.7-.44-1.43-.74-2.16-.92,1.61-1.09,3.22-2.29,4.83-3.62,5.61-5.27,8.65-10.18,10.11-14.22,4.96,4.18,8.9,11.32,10.6,14.75l.67-1.27c.14-.27,4.17-6.48,3.46-16.71-.21-2.99-1.09-5.97-2.29-8.49,5.21,1.9,9.88,5.9,11.7,7.6l.28-1.76c.05-.33,2.23-8.4-2.47-17.08-1.74-3.21-4.24-5.85-6.71-7.49,2.59-1.93,8.65-7.32,7.36-15.3l-2.41.36c-10.86,3.77-22.14-.05-24.47-1.06-.79-2.86-3.96-17.82-10.52-31.72,2.39-3.91,6.75-11.71,8.39-19.13,2.29-10.39,3.6-28.55-1.11-30.9-3.53-1.77-12.82-1.92-23.38,2.02-9.74,3.63-14.17,10.14-15,11.53-1.72-7.64-8.86-18.2-28.78-16.99-15.3.93-23.79,10.52-27.29,15.59-1.86-2.68-6.22-7.28-13.84-10.13-10.56-3.94-19.85-3.78-23.38-2.02-4.71,2.35-3.4,20.51-1.11,30.9,1.64,7.42,6,15.22,8.39,19.13-6.56,13.89-9.74,28.86-10.52,31.72-2.32,1.01-13.61,4.83-24.47,1.06l-2.12-.6c-1.29,7.98,4.58,13.53,7.1,15.52-2.48,1.63-5,4.29-6.74,7.51-4.7,8.68-2.52,16.75-2.47,17.08l.28,1.77c2.77-2.39,7.17-5.74,11.54-7.29-1.12,2.45-1.93,5.31-2.13,8.17-.72,10.23,3.31,16.44,3.46,16.71l1.02,1.93c2.06-4.43,5.83-11.55,10.26-15.4,1.46,4.04,4.5,8.94,10.11,14.21,1.61,1.33,3.22,2.53,4.83,3.62-.73.18-1.47.48-2.16.92-.61-.34-1.17-.54-1.66-.58-1.67-.12-4.18,2.1-5.53,3.36-1.46,1.36-4.03,5.4-2.65,6.86,0,0,0,.03.02.06-.99,2.17-3.78,8.62-6.53,17.8-29.6,5.63-50.42,13.97-58.01,23.58-7.12-79.29,7.76-140.77,42.15-180.67l.07-.08c20.56-23.85,55.15-35.19,92.54-35.19s71.99,11.34,92.54,35.19l.07.08c34.3,39.79,49.2,101.05,42.21,180.03Z"/><path class="cls-10" d="m422.18,219.47c-20.56-23.85-55.15-35.19-92.54-35.19s-71.99,11.34-92.54,35.19l-.07.08c-34.4,39.9-49.27,101.38-42.15,180.67,7.59-9.61,28.41-17.95,58.01-23.58,2.74-9.18,5.54-15.63,6.53-17.8-.01-.04-.02-.06-.02-.06-1.37-1.46,1.19-5.5,2.65-6.86,1.35-1.26,3.87-3.48,5.53-3.36.49.03,1.05.23,1.66.58.7-.44,1.43-.74,2.16-.92-1.61-1.09-3.22-2.29-4.83-3.62-5.61-5.26-8.65-10.17-10.11-14.21-4.43,3.85-8.2,10.97-10.26,15.4l-1.02-1.93c-.14-.27-4.17-6.48-3.46-16.71.2-2.86,1.01-5.72,2.13-8.17-4.37,1.55-8.77,4.9-11.54,7.29l-.28-1.77c-.05-.33-2.23-8.4,2.47-17.08,1.74-3.22,4.26-5.88,6.74-7.51-2.51-1.98-8.39-7.53-7.1-15.52l2.12.6c10.86,3.77,22.14-.05,24.47-1.06.79-2.86,3.96-17.82,10.52-31.72-2.39-3.91-6.75-11.71-8.39-19.13-2.29-10.39-3.6-28.55,1.11-30.9,3.53-1.77,12.82-1.92,23.38,2.02,7.62,2.84,11.99,7.45,13.84,10.13,3.5-5.07,11.99-14.66,27.29-15.59,19.92-1.21,27.06,9.35,28.78,16.99.83-1.39,5.26-7.9,15-11.53,10.56-3.94,19.85-3.78,23.38-2.02,4.71,2.35,3.4,20.51,1.11,30.9-1.64,7.42-6,15.22-8.39,19.13,6.56,13.89,9.74,28.86,10.52,31.72,2.32,1.01,13.61,4.83,24.47,1.06l2.41-.36c1.29,7.98-4.77,13.38-7.36,15.3,2.47,1.63,4.97,4.28,6.71,7.49,4.7,8.68,2.52,16.75,2.47,17.08l-.28,1.76c-1.83-1.7-6.49-5.7-11.7-7.6,1.2,2.53,2.08,5.5,2.29,8.49.72,10.23-3.31,16.44-3.46,16.71l-.67,1.27c-1.71-3.43-5.64-10.57-10.6-14.75-1.46,4.04-4.5,8.95-10.11,14.22-1.61,1.33-3.22,2.53-4.83,3.62.73.18,1.47.48,2.16.92.61-.34,1.17-.54,1.66-.58,1.67-.12,4.18,2.1,5.53,3.36,1.46,1.36,4.03,5.4,2.65,6.86,0,0,0,.03-.02.06.99,2.17,3.8,8.65,6.55,17.87,28.75,5.51,49.56,13.57,57.71,22.88,6.98-78.99-7.91-140.24-42.21-180.03l-.07-.08Z"/><path class="cls-14" d="m138.82,469.29c.1-.21.2-.43.31-.65,1.06,3.24,2.93,5.76,5.52,7.33.48.29.97.54,1.48.76,1.18.92,2.49,1.63,4.19,1.91,1.11.18,2.23.27,3.37.27,8.57,0,18.59-5.05,25.34-13.84,10.84-14.11,11.98-34.53,2.29-42.45-1.16-.95-2.44-1.81-3.89-2.3,4.72-4.44,9.52-8.63,14.32-12.5,0,.19-.03.37-.03.56,0,10.48,16.18,22.38,42.19,29.56,25.59,7.06,59.6,10.95,95.75,10.95s70.16-3.89,95.75-10.95c25.88-7.14,42.7-18.96,42.87-29.41,4.45,3.65,8.9,7.59,13.3,11.76-1.47.49-2.78,1.36-3.95,2.32-9.69,7.93-8.55,28.34,2.29,42.45,6.75,8.79,16.77,13.84,25.34,13.84,1.13,0,2.26-.09,3.37-.27,1.69-.28,3-.99,4.19-1.91.51-.22,1-.47,1.48-.76,3.26-1.98,5.38-5.45,6.17-9.98,6.59,9.1,6.85,20.68,5.94,26.18-2.61,15.66-24.04,31.15-58.8,42.51-36.83,12.04-85.67,18.67-137.52,18.67h-.42c-52.06,0-101.08-6.6-138.02-18.6-35.07-11.39-56.32-26.89-58.28-42.53-1.15-9.17,2.07-15.86,5.48-22.95Z"/><path class="cls-3" d="m330.07,361c-13.03,0-23.38-5.56-28.51-8.98,1.04,1.15,2.34,2.4,3.92,3.62l2.31,1.78-2.91-.15c-7.59-.38-22.5-2.82-37.1-14.88-6.96-6.54-10.08-12.63-11.45-16.41.02.16.04.32.06.48l.07.47-.37.3c-4.59,3.7-7.83,9.43-9.21,13.22l-.91,2.5-.81-2.53c-.91-2.86-1.92-7.52-1.5-13.43.33-4.67,2.62-9.55,4.38-12.68-.36.36-.72.77-1.08,1.24l-.18.23-.29.07c-5.49,1.29-9.78,4.73-11.84,6.67l-1.53,1.43v-2.1c-.01-2.69.43-8.04,3.47-13.65,2.04-3.78,5.15-6.81,7.5-8.74-.13.05-.27.1-.4.16l-.44.18-.38-.29c-.26-.2-6.49-4.95-6.82-11.38l-.07-1.44,1.33.55c2.87,1.19,6.02,1.8,9.37,1.8,6.15,0,11.68-1.98,15.06-3.86l-.09.03.45-1.61c1.39-4.94,6.57-22.14,14.64-36.34,8.62-15.16,21.1-27.56,22.86-27.56h.24l.24.13.21.13.09.11c.05.06.1.14.15.25l.63-1.22c.79-1.69,8.42-16.77,27.35-17.93,1.05-.06,2.08-.1,3.08-.1,13.06,0,21.44,5.37,23.59,15.13,2.03,9.22-4.31,18.49-11.62,22.88l-1.96,1.17.61-2.2c1.2-4.32,2.15-9.4.25-13.16.18.73.32,1.48.42,2.23l.29,2.15-.7-.52c-.9,2.95-3.69,10.08-10.15,12.71l-1.61.66.38-1.7c1.21-5.44,1.03-12.02-1.15-16.15.26.89.49,1.82.68,2.76l.04.2-.06.2c-.69,2.3-2.89,7.95-8.44,10.86l-1.62.86.3-1.81c1.03-6.07-.44-10.94-4.36-14.49-.54-.49-1.1-.92-1.64-1.3,3.39,3.41,6.76,9.09,5.45,17.66l-.04.27.26-.09c5.53-1.73,7.96-5.02,9.03-7.48l.26-.6,1.45.26.04.65c.19,3.39-.09,6.58-.83,9.48-.05.21-.1.38-.12.49l-.06.26.25-.06c4.62-1.13,8.13-3.81,10.42-7.97l.34-.62,1.48.53-.13.69c-.34,1.81-.86,3.63-1.56,5.39l-.24.62,1.46-.5c4.73-1.77,8.63-4.86,11.24-8.93l.26-.4.48.03c1.23.06,2.3.26,3.27.59,1.11.39,2.25.92,3.29,1.48-.81-.68-1.85-1.32-3.19-1.78-.76-.26-1.53-.43-2.3-.49l-1.34-.12.6-1.2c1.65-3.26,2.39-6.9,2.17-10.52l-.12-1.88,2.84,1.98c2.16,1.21,14.14,11.83,23.32,27.97,8.08,14.21,13.25,31.41,14.64,36.34l.45,1.61-.09-.03c3.38,1.88,8.91,3.86,15.06,3.86,3.34,0,6.49-.6,9.37-1.8l1.33-.55-.07,1.44c-.3,5.92-5.65,10.49-6.72,11.35l-.37.3-.44-.17c-.19-.07-.38-.14-.56-.2,2.35,1.94,5.49,4.98,7.55,8.78,3.04,5.61,3.48,10.96,3.48,13.65v2.1s-1.53-1.43-1.53-1.43c-2.06-1.94-6.34-5.37-11.79-6.63l-.28-.07-.18-.23c-.38-.49-.76-.92-1.14-1.28,1.76,3.12,4.06,8.01,4.39,12.69.42,5.91-.59,10.56-1.5,13.43l-.81,2.53-.91-2.49c-1.39-3.8-4.63-9.51-9.18-13.14l-.36-.29.06-.46c.02-.18.04-.36.06-.54-1.41,3.87-4.61,9.93-11.43,16.34-15.43,12.74-31.44,14.69-37.61,14.94l-2.71.11,2.1-1.72c1.06-.87,1.97-1.74,2.74-2.56-4.65,3.18-13.48,7.77-25.89,7.88h-.44s0,0,0,0Z"/><path class="cls-9" d="m393.09,303.81c-4.08-6.81-8.17-5.1-10.21-7.83-2.04-2.72,1.69-7.42,1.69-7.42l-4.08.95-3.06,3.06-16.67-2.72-8.34,1.78-4.59-.08-8.51-1.02s-4.76-3.74-8.51-3.4h-2.04c-3.74-.34-8.51,3.4-8.51,3.4l-8.51,1.02-4.59.08-8.34-1.78-16.67,2.72-3.06-3.06-4.08-.95s3.73,4.7,1.69,7.42c-2.04,2.72-6.13,1.02-10.21,7.83-4.08,6.81,2.86,22.91,8.85,31.99,11.23,17.01,31.31,21.1,31.31,21.1h1.7l10.04,3.42-.17,1.01,3.8.23,2.33.79,5.44-.33,5.44.33,2.33-.79,3.8-.23-.17-1.01,10.04-3.42h1.7s20.08-4.08,31.31-21.1c5.99-9.08,12.93-25.18,8.85-31.99Z"/><path class="cls-13" d="m329.8,301.89c-4.51,0-7.15-2.77-8.14-3.81l-.11-.12c-1.46-1.52-2.33-3.38-2.3-4.04.28-3.08,3.7-6.34,10.55-6.34,6.01,0,10.54,2.7,10.54,6.27,0,2.07-4.14,8.04-10.54,8.04Z"/><path class="cls-6" d="m329.8,294.96c5.15,0,8.74,1.34,8.74,2.93,0,.81-3.29,3.88-8.74,3.88-3.88,0-6.05-1.46-6.89-1.98-1.26-.78-1.87-1.67-1.86-1.85.22-1.47,3.09-2.98,8.75-2.98Z"/><path class="cls-6" d="m329.8,343.71c-4.73,0-10.22-3.23-17.27-10.16l-.66-.64.71-.58c.84-.69,3.39-2.3,8.99-2.3h.47c4.42.08,7.44,3.21,7.47,3.24l.17.18.18-.17s3.26-3.16,7.69-3.25h.31c5.26,0,7.61,2.17,8.38,3.11l.48.59-.54.53c-6.61,6.45-11.81,9.45-16.38,9.45Z"/><path class="cls-3" d="m373.67,430.21c-.76,0-1.52-.05-2.26-.14-7.91-.99-10.23-2.22-11.57-4.01-.95-1.27-.94-2.38-.85-2.92.17-1.02,1.03-1.88,1.72-2.41l.39-.3.45.2c.56.24,1.15.45,1.76.6-1.65-.78-3.14-1.82-4.18-3.1-1.11-1.36-1.54-2.86-1.3-4.46v-.1s.05-.09.05-.09c.83-2.05,3.09-2.76,4.37-3l.18-.03.18.05c.16.04.33.08.5.12-1.4-.65-2.78-1.56-3.75-2.83-1-1.31-1.35-2.86-1.05-4.59.17-.96.61-1.68,1.31-2.14.7-.46,1.51-.7,2.4-.7.37,0,.74.04,1.11.12l.13.03.12.07c2,1.22,4.27,1.86,6.58,1.86.08,0,.16,0,.24-.01l.43-.02c1.16-.07,2.2-.26,3.16-.56,2.41-.49,5.57-1.28,7.43-2.35l.23-.13.27.03c2.06.22,5.91,1.28,8.5,5.93,2.63,4.73,3.4,13,.5,16.99-2.32,3.19-9.35,7.9-17.07,7.9Z"/><path class="cls-3" d="m285.94,430.21c-7.72,0-14.75-4.72-17.07-7.9-2.9-3.99-2.13-12.26.5-16.99,2.59-4.65,6.44-5.71,8.5-5.93l.27-.03.23.13c1.86,1.07,5.02,1.86,7.34,2.33,1.09.34,2.17.53,3.3.59h.05s.33.02.33.02c.08,0,.16.01.24.01,2.31,0,4.58-.64,6.58-1.86l.12-.07.13-.03c.37-.08.74-.12,1.11-.12.89,0,1.7.23,2.4.7.71.47,1.15,1.19,1.31,2.14.3,1.74-.05,3.28-1.05,4.59-.97,1.27-2.35,2.18-3.75,2.84.17-.04.34-.08.51-.12l.18-.05.18.03c1.27.24,3.54.95,4.37,3l.04.09v.1c.26,1.6-.18,3.1-1.29,4.46-1.04,1.28-2.53,2.32-4.18,3.1.61-.16,1.2-.36,1.76-.6l.45-.2.39.3c.69.54,1.55,1.39,1.72,2.41.09.54.1,1.65-.85,2.92-1.33,1.79-3.65,3.02-11.57,4.01-.74.09-1.5.14-2.26.14Z"/><path class="cls-3" d="m272.55,248.64c-2.2-3.6-6.09-10.68-7.51-17.55-2.19-10.59-3.43-26.27-.48-27.74,1.34-.67,3.52-1.03,6.14-1.03,3.21,0,8.51.55,15.51,3.16,8.51,3.17,12.6,9.66,13.65,11.58l.32.58-.9.78c-1.01.87-3.11,2.69-5.72,5.2l-.73.7-.54-.85c-5.15-7.98-10.04-11.86-13.24-13.72-1.67-.97-3.82-1.5-6.06-1.5h-.04c2.06.2,4.02.84,5.86,1.93,6.07,3.57,10.79,10.02,13.06,13.55l.61.94-.48.47c-7.2,7.15-12.91,14.41-16.98,21.56-.36.63-.7,1.26-1.04,1.9l-.68,1.28-.75-1.24Z"/><path class="cls-3" d="m385.62,248.6c-.34-.64-.69-1.28-1.04-1.9-4.07-7.16-9.78-14.41-16.98-21.56l-.48-.48.61-.94c2.28-3.53,7-9.97,13.06-13.55,1.84-1.08,3.8-1.73,5.86-1.93h-.04c-2.24,0-4.39.53-6.06,1.5-3.2,1.86-8.09,5.74-13.23,13.7l-.54.84-.73-.68c-2.61-2.51-4.71-4.33-5.72-5.2l-.78-.67.35-.59c1.87-3.18,6.11-8.92,13.5-11.68,7-2.61,12.3-3.16,15.51-3.16,2.62,0,4.81.37,6.14,1.03,2.95,1.48,1.71,17.15-.48,27.74-1.42,6.88-5.32,13.95-7.51,17.55l-.75,1.24-.68-1.28Z"/><path class="cls-9" d="m352.17,291.54c-2.19-.83-4.68-1.44-7.39-1.83l-.3-.04-.2-.23c-.83-.95-2.06-2.51-3.14-4.57l-1.26-2.4,2.39,1.28c.83.44,1.76.68,2.7.68,3.16,0,5.73-2.57,5.73-5.73s-2.57-5.72-5.73-5.72c-1.9,0-3.67.94-4.74,2.52l-1.55,2.29.04-2.77c.03-2.04.37-4.09,1.03-6.11,2.66-8.19,8.56-11.3,11.85-12.42,1.74-.59,3.53-.91,5.18-.91,1.49,0,2.86.26,3.89.72l.11-.16.73.6c1.86,1.64,3.58,3.57,5.12,5.72,5.67,7.92,7.33,15.31,7.72,20.12.27,3.27,0,5.83-.25,7.4l-.15.87-.86-.2c-2.58-.59-5.23-.91-7.66-.91-.18,0-.35,0-.53,0-5.66.11-9.74,1.04-12.17,1.81l-.27.09-.27-.1Zm-3.76-12.84c0-1.9-1.55-3.45-3.45-3.45s-3.45,1.55-3.45,3.45,1.55,3.45,3.45,3.45,3.45-1.55,3.45-3.45Zm-30.3,0c0-1.9-1.55-3.45-3.45-3.45s-3.45,1.55-3.45,3.45,1.55,3.45,3.45,3.45,3.45-1.55,3.45-3.45Zm-10.93,12.94l.27-.1c2.19-.83,4.68-1.44,7.39-1.83l.3-.04.2-.23c.83-.95,2.06-2.51,3.14-4.57l1.26-2.4-2.39,1.28c-.83.44-1.76.68-2.7.68-3.16,0-5.73-2.57-5.73-5.73s2.57-5.72,5.73-5.72c1.9,0,3.67.94,4.74,2.52l1.55,2.29-.04-2.77c-.03-2.04-.37-4.09-1.03-6.11-2.66-8.19-8.56-11.3-11.85-12.42-1.74-.59-3.53-.91-5.18-.91-1.49,0-2.86.26-3.89.72l-.12-.18-.71.63c-1.86,1.64-3.58,3.57-5.12,5.72-5.67,7.92-7.33,15.31-7.72,20.12-.27,3.27,0,5.83.26,7.4l.15.87.86-.2c2.58-.59,5.23-.91,7.66-.91.18,0,.35,0,.53,0,5.66.11,9.74,1.04,12.17,1.81l.27.09Z"/><path class="cls-9" d="m335.19,323.63c-1.01,0-1.94-.22-2.67-.64-.95-.54-2.08-1.7-2.08-4.16v-10.73l1.45,1.68c1.97,2.28,5.35,5.38,10.24,7.23l.54.21v.58c-.03,1.75-1.16,3.41-3.1,4.57-1.37.81-2.93,1.26-4.4,1.26Z"/><path class="cls-9" d="m325.21,323.63c-1.47,0-3.03-.45-4.39-1.26-2-1.2-3.13-2.92-3.09-4.72h.4s-.13-.76-.13-.76c4.99-1.91,8.48-5.05,10.53-7.35l1.45-1.62v10.91c0,2.46-1.13,3.62-2.08,4.16-.73.42-1.66.64-2.67.64Z"/><path class="cls-19" d="m297.13,286.8c-2.75-.25-4.42-.28-6.13-.23-.78.03-2.16-1.47-1.93-4.76.19-2.73.61-3.64,2.1-8.11,2.37-7.12,6.37-12.82,9.92-15.26,4.09-2.8,7.6-1.76,7.6-1.76l-5.85-1.1-4.7.42-6.98,6.47-5.44,11.91-1.36,11.06.85,5.27,1.32-.21v.15s9.91-.92,9.91-.92l9.84,2.14,3.64-1.5s-5.74-2.94-12.8-3.58Z"/><path class="cls-19" d="m363.15,286.8c2.75-.25,4.42-.28,6.13-.23.78.03,2.16-1.47,1.93-4.76-.19-2.73-.61-3.64-2.1-8.11-2.37-7.12-6.37-12.82-9.92-15.26-4.09-2.8-7.6-1.76-7.6-1.76l5.85-1.1,4.7.42,6.98,6.47,5.44,11.91,1.36,11.06-.85,5.27-1.32-.21v.15s-9.91-.92-9.91-.92l-9.84,2.14-3.64-1.5s5.74-2.94,12.8-3.58Z"/><path class="cls-21" d="m302.75,313.34c-11.29-3.46-17.17-13.11-17.17-13.11l-.36,1.54,3.91,8.51,8,6.47,10.04,3.23,13.1-3.91,9.53-7.32.17-3.06s-14.46,11.57-27.22,7.66Z"/><path class="cls-21" d="m357.7,313c11.29-3.46,17.17-13.11,17.17-13.11l.36,1.54-3.91,8.51-8,6.47-10.04,3.23-13.1-3.91-9.53-7.32-.17-3.06s14.46,11.57,27.22,7.66Z"/><path class="cls-21" d="m292.2,313.34s18.38,24.84,21.27,28.07,9.02,8.68,16.33,8.68,12.59-4.25,15.31-7.32,23.14-30.29,23.14-30.29l-20.25,20.08-10.04,9.53-6.98,2.38-9.36-2.04-10.04-8.51-11.74-13.95-7.66-6.64Z"/><path class="cls-13" d="m292.49,224.66l-8.12-11.02-9.19-5.44-4.25.17-3.4.85-2.48,1.3s-2.96,6.02-1.6,12.14,2.89,15.14,2.89,15.14l7.15,14.12s11.23-17.86,11.74-18.04,7.27-9.22,7.27-9.22Z"/><path class="cls-13" d="m366.94,224.66l8.12-11.02,9.19-5.44,4.25.17,3.4.85,2.48,1.3s2.96,6.02,1.6,12.14-2.89,15.14-2.89,15.14l-7.15,14.12s-11.23-17.86-11.74-18.04-7.27-9.22-7.27-9.22Z"/><ellipse class="cls-2" cx="325.82" cy="291.8" rx="3.42" ry="1.66" transform="translate(-49.17 66.66) rotate(-10.87)"/><path class="cls-17" d="m329.64,427.11c-9.17,0-18.37-.3-27.35-.9l-1.15-.08.44-1.06c.4-.96.35-1.76.28-2.14-.15-.89-.73-1.57-1.74-2.03l-1.28-.58,1.12-.84c.67-.5,1.16-.96,1.57-1.46,1.21-1.48,1.69-3.2,1.38-4.96l-.03-.12c-.43-1.15-1.38-1.85-2.87-2.04l-2.28-.3,1.94-1.22c.66-.41,1.17-.87,1.57-1.39,1.08-1.42,1.47-3.1,1.14-4.98-.19-1.08-.72-1.94-1.53-2.47-.45-.3-1-.5-1.65-.62l-1.53-.27,1.08-1.12c2.31-2.39,3.58-5.51,3.58-8.81,0-7-5.69-12.69-12.69-12.69s-12.69,5.69-12.69,12.69c0,2.12.54,4.23,1.56,6.09l-1.27,1.03c-.99-.85-2.09-1.47-3.27-1.83l-.79-.24.24-.79c.92-3.06,3.88-13.91,3.11-24.91-.71-10.07-3.66-15.07-5.36-17.15l-.66-.81.93-.46c.92-.45,2.28-.7,3.83-.7h.55s.18.11.18.11c.66.37,1.31.73,1.96,1.07l.42.22.02.48c.69,14.2,23.67,25.75,51.22,25.75h.27c27.64,0,50.62-11.55,51.3-25.75l.02-.48.42-.22c.65-.34,1.31-.7,1.96-1.07l.18-.1h.55c1.55,0,2.91.24,3.83.69l.93.46-.66.81c-1.7,2.08-4.65,7.07-5.36,17.15-.77,10.99,2.18,21.84,3.11,24.91l.24.79-.79.24c-1.19.36-2.29.98-3.27,1.83l-1.27-1.02c1.02-1.86,1.56-3.96,1.56-6.09,0-7-5.69-12.69-12.69-12.69s-12.69,5.69-12.69,12.69c0,3.29,1.27,6.42,3.58,8.81l1.08,1.12-1.53.27c-.64.12-1.2.32-1.65.62-.82.53-1.35,1.39-1.53,2.47-.33,1.88.06,3.55,1.14,4.98.4.52.91.97,1.57,1.39l1.94,1.22-2.28.3c-1.49.2-2.44.89-2.89,2.11l-.03.12c-.29,1.69.19,3.41,1.4,4.89.41.5.9.96,1.57,1.46l1.12.84-1.28.58c-1.01.46-1.59,1.14-1.74,2.03-.06.38-.11,1.17.28,2.12l.43,1.06-1.14.08c-9.06.61-18.37.92-27.68.92Z"/><path class="cls-4" d="m329.8,409.52c-8.49,0-15.4-5.96-15.4-13.29s6.91-13.29,15.4-13.29,15.4,5.96,15.4,13.29-6.91,13.29-15.4,13.29Z"/><path class="cls-11" d="m329.8,405.66c-6.37,0-11.55-4.23-11.55-9.43s5.18-9.43,11.55-9.43,11.55,4.23,11.55,9.43-5.18,9.43-11.55,9.43Z"/><path class="cls-5" d="m369.97,401.6c-6.54,0-11.87-5.32-11.87-11.87s5.32-11.87,11.87-11.87,11.87,5.32,11.87,11.87-5.32,11.87-11.87,11.87Z"/><path class="cls-7" d="m289.64,401.6c-6.54,0-11.87-5.32-11.87-11.87s5.32-11.87,11.87-11.87,11.87,5.32,11.87,11.87-5.32,11.87-11.87,11.87Z"/><path class="cls-17" d="m403.22,413.04c.34-4.69-.9-9.12-3.47-12.49-2.43-3.18-5.59-5.16-9.13-5.73l-.61-.1-.08-.62c-.24-1.95-2.22-19.42,3.35-30.97l.03-.06.04-.06c1.42-2.02,2.83-2.95,3.76-3.37l.75-.34.87,1.88c1.65,3.55,4.73,10.17,6.94,17.82l.2.69c2.44,8.42,4.01,14.52,3.51,22.34-.31,4.84-2.71,8.97-4.67,11.58l-1.69,2.26.2-2.81Z"/><path class="cls-13" d="m308.98,373.94c-15.01-3.63-25.34-11.15-27.09-20.06,2.81,1.18,5.52,2.06,8.07,2.72,4.43,8.73,20.46,14.77,39.49,14.77.12,0,.23,0,.35,0,.12,0,.23,0,.35,0,19.03,0,35.06-6.04,39.49-14.77,2.58-.67,5.33-1.57,8.18-2.77-2.48,12.57-22.37,22.39-48.03,22.44-7.43-.01-14.48-.85-20.82-2.33Z"/><path class="cls-13" d="m391.8,423.08c3.12-4.29,3.16-13.83-.37-19.01-3.05-4.48-6.64-5.46-8.7-5.62,1.06-1,3.09-2.5,5.71-2.5h0c3.14,0,6.4,1.59,9.57,5.74,3.69,4.83,5.59,15.71.15,20.34-2.26,1.92-5.08,1.95-6.65,1.4.09-.12.19-.23.27-.35Z"/><path class="cls-13" d="m392.16,361.24l-.08.14c-5.4,9.64-3.87,28.79-3.51,32.43-.04,0-.08,0-.13,0,0,0-.01,0-.02,0-.31,0-.61.01-.91.03-.35-1.21-3.38-12.28-2.57-23.81.96-13.68,5.62-18.45,7.11-18.56.52-.04,1.79.59,3.35,2.04,1.36,1.27,2.32,2.54,2.82,3.47-1.62.21-3.96,1.21-6.08,4.26Z"/><path class="cls-13" d="m261.59,401.69c3.17-4.14,6.43-5.74,9.57-5.74h0c2.62,0,4.65,1.5,5.71,2.5-2.05.16-5.64,1.14-8.7,5.62-3.52,5.18-3.48,14.73-.37,19.01.08.11.18.23.27.35-1.57.55-4.39.52-6.65-1.4-5.44-4.63-3.54-15.51.15-20.34Z"/><path class="cls-13" d="m274.66,370.03c.81,11.53-2.22,22.6-2.57,23.81-.29-.02-.59-.04-.91-.03,0,0-.01,0-.02,0-.04,0-.08,0-.13,0,.36-3.64,1.89-22.79-3.51-32.43l-.08-.14c-2.11-3.05-4.45-4.05-6.08-4.26.51-.93,1.46-2.2,2.82-3.47,1.56-1.45,2.84-2.08,3.35-2.04,1.49.11,6.15,4.88,7.11,18.56Z"/><path class="cls-24" d="m329.8,370.06c-16.44-.07-31.2-4.93-36.73-12.1l-1.33-1.73,2.15.41c5.8,1.11,10.38,1.11,12.83,1.11.32,0,.91.02,1.59.05h.21s.18.11.18.11c5.9,3.48,13.12,5.24,21.44,5.24h.39c7.82,0,14.59-1.76,20.13-5.22l.18-.11h.22c.78-.05,1.48-.07,1.85-.07,2.46,0,7.04,0,12.83-1.11l2.15-.41-1.33,1.73c-5.53,7.17-20.29,12.03-36.73,12.1h0Z"/><path class="cls-17" d="m254.91,413.59c-1.96-2.61-4.36-6.74-4.67-11.58-.5-7.81,1.07-13.92,3.51-22.34l.2-.69c2.22-7.65,5.29-14.27,6.95-17.82l.87-1.88.75.34c.93.42,2.34,1.35,3.76,3.37l.04.06.03.06c5.56,11.54,3.59,29.02,3.35,30.97l-.08.62-.61.1c-3.54.57-6.7,2.56-9.13,5.73-2.58,3.37-3.81,7.81-3.47,12.49l.2,2.81-1.69-2.26Z"/><path class="cls-12" d="m520.43,466c-.79,4.53-2.91,8-6.17,9.98-.48.29-.97.54-1.48.76-1.18.92-2.49,1.63-4.19,1.91-1.11.18-2.23.27-3.37.27-3.31,0-6.83-.76-10.29-2.19-29.01,16.02-80.72,34.33-165.54,34.33s-133.75-17.74-165.65-34.24c-3.39,1.37-6.84,2.09-10.07,2.09-1.13,0-2.26-.09-3.37-.27-1.69-.28-3-.99-4.19-1.91-.51-.22-1-.47-1.48-.76-2.59-1.57-4.46-4.09-5.52-7.33-.1.21-.2.43-.31.65-3.41,7.09-6.64,13.78-5.48,22.95,1.97,15.64,23.21,31.14,58.28,42.53,36.94,11.99,85.96,18.6,138.02,18.6h.42c51.85,0,100.68-6.63,137.52-18.67,34.75-11.36,56.18-26.86,58.8-42.51.92-5.51.65-17.09-5.94-26.18Z"/><path class="cls-12" d="m330.51,584.33c-51.67-.07-100.42-6.97-137.34-19.45-34.84-11.77-56.35-27.68-59.01-43.65-.22-1.32-.45-2.63-.68-3.94-1.05-6.04-2.14-12.28-2.31-18.87l1.59-.35c6.37,14.56,27.61,28.61,58.25,38.56,38.22,12.41,87.45,19.24,138.62,19.24h.42c50.97,0,100.02-6.86,138.12-19.31,32.05-10.48,51.88-22.38,58.94-35.38l1.55.47c-.39,4.52-1.15,8.77-1.97,13.26-.3,1.68-.61,3.38-.9,5.12-2.68,16.06-23.75,32.16-57.81,44.19-36.64,12.94-85.17,20.11-136.65,20.19h-.83s0-.08,0-.08Z"/><path class="cls-4" d="m232.6,592.23c-32.41,0-61.15-15.17-69.89-36.9l-.86-2.13,2.02,1.09c7.99,4.31,17.21,8.33,27.41,11.94,16.14,5.72,34.79,10.37,55.43,13.84l.49.08.16.47c1,2.95,2.35,5.89,4.04,8.75l.6,1.02-1.17.21c-5.94,1.07-12.07,1.61-18.24,1.61Z"/><path class="cls-4" d="m427.51,592.23c-6.61,0-13.19-.63-19.55-1.86l-1.11-.21.53-.99c1.39-2.58,2.58-5.29,3.52-8.05l.16-.47.49-.08c21.07-3.51,40.34-8.32,57.27-14.32,10.2-3.61,19.43-7.63,27.41-11.94l2.02-1.09-.86,2.13c-8.74,21.72-37.48,36.9-69.89,36.9Z"/><path class="cls-4" d="m329.22,622.58c-37.68,0-68.08-15.87-77.45-40.43l-.51-1.33,1.41.22c24.84,3.83,51.02,5.79,77.81,5.83h.83v.13c25.46-.04,50.33-1.87,73.92-5.43l1.39-.21-.49,1.32c-4.55,12.23-12.11,20.83-24.53,27.88-13.85,7.87-31.96,12.02-52.37,12.02Z"/><path class="cls-11" d="m329.25,610.86c21.49,0,42.47-4.12,59.09-13.55,7.43-4.22,13.12-8.87,17.54-14.03.08-.2.16-.4.24-.61l.49-1.32-1.39.21c-23.59,3.56-48.46,5.39-73.92,5.43v-.13h-.83c-26.8-.04-52.98-2-77.81-5.83l-1.41-.22.12.33c15.63,18.58,44.24,29.72,77.87,29.72Z"/><path class="cls-11" d="m248.12,583.26l.22-.04c-.35-.86-.69-1.73-.98-2.59l-.16-.47-.49-.08c-20.64-3.47-39.29-8.13-55.43-13.84-10.2-3.61-19.42-7.63-27.41-11.94l-2.02-1.09.86,2.13c1.04,2.59,2.38,5.09,3.96,7.48,14.16,13.58,37.12,22.16,62.17,22.16,6.52,0,13.01-.57,19.28-1.7Z"/><path class="cls-11" d="m498.25,553.21l-2.02,1.09c-7.99,4.31-17.21,8.33-27.41,11.94-16.93,5.99-36.19,10.81-57.27,14.32l-.49.08-.16.47c-.2.58-.42,1.16-.64,1.74l.78.15c6.73,1.31,13.68,1.97,20.67,1.97,24.31,0,46.65-8.08,60.89-20.97,1.95-2.75,3.57-5.64,4.79-8.67l.86-2.13Z"/><path class="cls-8" d="m471.02,440.92c-.29-7.61,1.86-14.44,6.58-18.3,1.17-.96,2.48-1.83,3.95-2.32-4.39-4.17-8.85-8.11-13.3-11.76-.17,10.44-16.99,22.26-42.87,29.41-25.59,7.06-59.6,10.95-95.75,10.95s-70.16-3.89-95.75-10.95c-26.01-7.18-42.19-19.08-42.19-29.56,0-.19.02-.37.03-.56-4.8,3.87-9.59,8.05-14.32,12.5,1.45.49,2.73,1.35,3.89,2.3,4.08,3.34,6.23,8.89,6.56,15.24,20.77,15.83,62.45,34.63,143.29,34.63,75.15,0,117.13-16.41,139.88-31.57Z"/><path d="m410.99,390.78c11.81,3.85,18.31,8.39,18.31,12.86,0,2.61-2.64,9.23-26.54,15.2.18-.46.35-.94.49-1.43,1.99-1.68,8.58-7.72,9.06-15.16.25-3.94-.37-7.73-1.33-11.46Z"/><path d="m247.3,402.25c.48,7.45,7.07,13.48,9.06,15.16.16.53.33,1.04.53,1.53-24.23-5.99-26.91-12.66-26.91-15.3,0-4.52,6.62-9.1,18.68-12.98-.98,3.78-1.61,7.6-1.36,11.58Z"/><path class="cls-15" d="m329.64,445.41c-36.04,0-69.92-3.87-95.4-10.91-25.02-6.91-39.36-16.43-39.36-26.12,0-12.16,20.84-23.19,57.18-30.25l1.34-.26-.38,1.31c-.45,1.55-.94,3.09-1.43,4.62-.49,1.54-.98,3.09-1.44,4.63l-.13.43-.43.13c-13.49,4.14-20.92,9.34-20.92,14.64,0,8.51,17.73,14.13,28.89,16.82l.26-1.07,1.05,1.6c.54.84,1.12,1.52,1.73,2.04,1.53,1.3,3.49,2.02,5.51,2.02,1.17,0,2.27-.24,3.11-.68l.53-.28.43.42c2.57,2.52,7.21,5.57,12.49,6.59l.67.13v2.55l-.58.18c-2.07.64-3.22,1.55-3.22,2.55,0,1.94,4.44,3.46,10.11,3.46s10.11-1.52,10.11-3.46c0-1-1.14-1.91-3.22-2.55l-.58-.18v-4.19l.51-.21c1.66-.69,2.97-1.52,3.9-2.48l.27-.28.39.03c9.28.65,18.91.97,28.62.97s19.58-.33,28.94-.99l.39-.03.27.28c.93.97,2.24,1.81,3.91,2.5l.51.21v4.19l-.58.18c-2.07.64-3.22,1.55-3.22,2.55,0,1.94,4.44,3.46,10.11,3.46s10.11-1.52,10.11-3.46c0-1-1.14-1.91-3.22-2.55l-.58-.18v-2.55l.67-.13c5.28-1.01,9.92-4.07,12.49-6.59l.43-.42.53.28c.83.44,1.94.68,3.11.68,2.03,0,3.98-.72,5.51-2.02.69-.59,1.34-1.39,1.94-2.39l1.04-1.74.34,1.41c10.93-2.68,28.26-8.26,28.26-16.66,0-5.25-7.3-10.42-20.55-14.54l-.42-.13-.12-.43c-.46-1.58-.96-3.16-1.47-4.74-.48-1.51-.96-3.03-1.41-4.55l-.39-1.31,1.34.26c36.11,7.06,56.82,18.06,56.82,30.18,0,9.69-14.35,19.21-39.36,26.12-25.48,7.03-59.36,10.91-95.4,10.91Z"/><path class="cls-21" d="m374.96,433.46c0,1.11-2.14,2.36-4.99,2.36s-4.99-1.24-4.99-2.36v-2.58c1.8.54,3.89.96,6.27,1.26.72.09,1.45.13,2.16.13.52,0,1.04-.02,1.55-.07v1.26Z"/><path class="cls-21" d="m294.63,433.46c0,1.11-2.14,2.36-4.99,2.36s-4.99-1.24-4.99-2.36v-1.26c.52.04,1.03.07,1.55.07.72,0,1.44-.04,2.16-.13,2.38-.3,4.47-.72,6.27-1.26v2.58Z"/><path d="m369.97,439.47c-5.09,0-9.5-1.33-9.62-2.91v-.06s0-.06,0-.06c.05-.72,1.06-1.45,2.78-2l.6-.19.35.52c.94,1.44,3.26,2.36,5.89,2.36s4.95-.93,5.89-2.36l.35-.52.6.19c1.72.55,2.74,1.28,2.78,2.01v.06s0,.06,0,.06c-.12,1.58-4.52,2.91-9.62,2.91Z"/><path d="m289.64,439.47c-5.09,0-9.5-1.33-9.62-2.91v-.06s0-.06,0-.06c.05-.72,1.06-1.45,2.78-2l.6-.19.35.52c.95,1.43,3.26,2.36,5.89,2.36s4.95-.93,5.89-2.36l.35-.52.6.19c1.72.55,2.74,1.28,2.78,2.01v.06s0,.06,0,.06c-.12,1.58-4.52,2.91-9.62,2.91Z"/><path class="cls-21" d="m329.64,467.59c17.96,0,32.58,14.61,32.58,32.58,0,10.85-5.34,20.48-13.52,26.4,6.71-5.44,11.06-13.65,11.06-22.82,0-16.33-13.79-30.92-30.12-30.92s-30.31,14.59-30.31,30.92c0,8.93,4.19,16.95,10.65,22.38-7.84-5.95-12.92-15.37-12.92-25.96,0-17.96,14.61-32.58,32.58-32.58Z"/><path class="cls-21" d="m238.12,456.84c1.5.14,2.98.45,4.41.94,12.74,4.35,19.18,21.39,14.34,37.98-4.21,14.44-15.71,24.15-27.34,23.08h-.04c-.51-.05-1.03-.13-1.54-.22,11.91-.11,23.06-10,26.12-24.08,3.46-15.96-4.76-31.34-18.33-34.28-3.59-.78-7.2-.6-10.63.36,3.77-2.89,7.61-4.27,13-3.78Z"/><path class="cls-21" d="m416.37,457.78c1.43-.49,2.91-.81,4.41-.94,5.39-.49,9.23.89,13,3.78-3.43-.96-7.04-1.14-10.63-.36-13.57,2.95-21.79,18.33-18.33,34.28,3.06,14.08,14.21,23.97,26.12,24.08-.51.09-1.02.17-1.54.22h-.04c-11.63,1.07-23.14-8.64-27.34-23.08-4.83-16.59,1.6-33.63,14.34-37.98Z"/><path class="cls-21" d="m488.59,423.71c-1.81.17-3.52.7-5.05,1.63-4.24,2.58-6.56,7.67-6.52,14.35.03,6.48,2.29,13.72,6.34,20.4,4.05,6.68,9.44,12.02,15.17,15.04.9.47,1.78.87,2.66,1.22-6.66-1.31-13.4-5.77-18.67-12.63-10.2-13.27-11.19-31.07-2.2-39.67,2.22-2.13,5.38-1.97,8.27-.35Z"/><path class="cls-21" d="m178.59,424.06c8.98,8.6,8,26.4-2.2,39.67-5.27,6.86-12.01,11.32-18.67,12.63.88-.34,1.77-.74,2.66-1.22,5.73-3.02,11.12-8.36,15.17-15.04,4.05-6.68,6.31-13.93,6.34-20.4.04-6.68-2.28-11.77-6.52-14.35-1.53-.93-3.24-1.46-5.05-1.63,2.89-1.62,6.05-1.78,8.27.35Z"/><circle class="cls-4" cx="329.64" cy="503.75" r="27.47" transform="translate(-180.86 822.82) rotate(-88.81)"/><path class="cls-11" d="m326.01,523.55c14.74,0,26.73-11.99,26.73-26.73,0-3.98-.88-7.76-2.45-11.16-5.04-5.75-12.43-9.39-20.65-9.39-15.15,0-27.47,12.32-27.47,27.47,0,2.28.28,4.5.81,6.63,4.65,7.88,13.23,13.18,23.03,13.18Z"/><path class="cls-4" d="m206.95,484.31c2.86-13.16,13.22-22.4,24.21-22.4,1.37,0,2.76.14,4.14.44,12.42,2.7,18.28,17.16,15.06,31.96-3.21,14.8-14.31,24.42-26.72,21.72-5.98-1.3-11.01-5.29-14.17-11.24-3.19-6.01-4.08-13.29-2.52-20.49Z"/><path class="cls-11" d="m220.09,509.26c11.77,2.56,22.28-6.56,25.32-20.59,1.97-9.08.33-18.02-4.25-23.9-1.75-1.12-3.71-1.95-5.87-2.42-1.38-.3-2.77-.44-4.14-.44-10.99,0-21.35,9.24-24.21,22.4-1.17,5.4-.96,10.83.55,15.75,3.01,4.83,7.42,8.08,12.58,9.2Z"/><path class="cls-4" d="m451.96,484.31c1.56,7.2.67,14.48-2.52,20.49-3.16,5.95-8.19,9.94-14.17,11.24-12.42,2.7-23.51-6.92-26.72-21.72-3.21-14.8,2.65-29.27,15.06-31.96,1.38-.3,2.77-.44,4.14-.44,10.99,0,21.35,9.24,24.21,22.4Z"/><path class="cls-4" d="m512.61,442.34c3.86,6.35,6,13.21,6.03,19.3.03,5.89-1.92,10.33-5.49,12.5-3.57,2.17-7.68,1.17-12.89-1.58-5.39-2.84-10.48-7.91-14.34-14.26-3.86-6.35-6-13.21-6.03-19.3-.03-5.89,1.18-9.66,4.76-11.83,1.6-.97,3.43-1.43,5.38-1.43,7.28,0,16.39,6.39,22.58,16.59Z"/><path class="cls-4" d="m146.29,442.34c6.19-10.21,15.3-16.59,22.58-16.59,1.96,0,3.78.46,5.38,1.43,3.57,2.17,4.79,5.93,4.76,11.83-.03,6.09-2.17,12.95-6.03,19.3-3.86,6.35-8.95,11.42-14.34,14.26-5.21,2.75-9.32,3.74-12.89,1.58-3.57-2.17-5.52-6.61-5.49-12.5.03-6.09,2.17-12.95,6.03-19.3Z"/><path class="cls-11" d="m143.98,467.88c3.3,2.01,7.1,1.08,11.92-1.46,4.99-2.63,9.7-7.31,13.26-13.19,3.57-5.88,5.55-12.22,5.58-17.85.02-4-.59-6.93-2.21-9-1.15-.41-2.37-.63-3.65-.63-7.28,0-16.39,6.39-22.58,16.59-3.86,6.35-6,13.21-6.03,19.3,0,.7.02,1.38.08,2.03.86,1.82,2.07,3.25,3.64,4.21Z"/><path class="cls-11" d="m439.73,509.71c-11.77,2.56-22.28-6.56-25.32-20.59-1.97-9.08-.33-18.02,4.25-23.9,1.75-1.12,3.71-1.95,5.87-2.42,1.38-.3,2.77-.44,4.14-.44,10.99,0,21.35,9.24,24.21,22.4,1.17,5.4.96,10.83-.55,15.75-3.01,4.83-7.42,8.08-12.58,9.2Z"/><path class="cls-11" d="m515.84,468.34c-3.3,2.01-7.1,1.08-11.92-1.46-4.99-2.63-9.7-7.31-13.26-13.19-3.57-5.88-5.55-12.22-5.58-17.85-.02-4,.59-6.93,2.21-9,1.15-.41,2.37-.63,3.65-.63,7.28,0,16.39,6.39,22.58,16.59,3.86,6.35,6,13.21,6.03,19.3,0,.7-.02,1.38-.08,2.03-.86,1.82-2.07,3.25-3.64,4.21Z"/><circle class="cls-8" cx="320.88" cy="492.57" r="8.34"/><ellipse class="cls-8" cx="219.51" cy="476.69" rx="8.34" ry="5.34" transform="translate(-305.01 459.54) rotate(-63.4)"/><ellipse class="cls-8" cx="158.73" cy="437.68" rx="8.34" ry="4.27" transform="translate(-286.37 301.14) rotate(-53.01)"/><ellipse class="cls-8" cx="439.4" cy="476.69" rx="5.34" ry="8.34" transform="translate(-166.93 247.19) rotate(-26.6)"/><ellipse class="cls-8" cx="500.19" cy="437.68" rx="4.27" ry="8.34" transform="translate(-162.67 389.01) rotate(-36.99)"/><ellipse class="cls-8" cx="327.27" cy="392.61" rx="4.05" ry="2.7"/><circle class="cls-1" cx="286.45" cy="385.11" r="3.3"/><circle class="cls-16" cx="366.59" cy="385.11" r="3.3"/><path class="cls-22" d="m341.04,338.8c-3.2-.73-7.05-1.3-11.36-1.3-5.11,0-8.83.52-11.44,1.11,4.43,3.45,8.19,5.1,11.56,5.1s6.97-1.59,11.24-4.92Z"/><path class="cls-24" d="m302.96,413.44c.18,1.63-.3,3.21-1.43,4.59-.4.5-.9.96-1.57,1.46l-1.12.84,1.28.58c1.01.46,1.59,1.14,1.74,2.03.06.39.11,1.18-.28,2.14l-.44,1.06,1.15.08c8.98.6,18.18.9,27.35.9s18.62-.31,27.68-.92l1.14-.08-.43-1.06c-.39-.96-.34-1.74-.28-2.12.15-.89.73-1.57,1.74-2.03l1.28-.58-1.12-.84c-.67-.5-1.16-.96-1.57-1.46-.63-.77-1.05-1.6-1.28-2.46-6.52,1.26-14.91,2.23-25.3,2.23-13.24,0-22.42-2.07-28.54-4.37Z"/><path class="cls-23" d="m972.35,302.1l8.96-20.74h-40.53l-8.08,13.43c-29.06,4.56-51.37,29.77-51.37,60.1v75.42c0,25.18,15.38,46.83,37.23,56.07v4.37c-21.85,9.24-37.23,30.89-37.23,56.07v5.44c0,33.55,27.29,60.84,60.84,60.84s60.84-27.29,60.84-60.84v-5.44c0-25.18-15.38-46.83-37.23-56.07v-4.37c21.85-9.24,37.23-30.89,37.23-56.07v-75.42c0-22.57-12.36-42.29-30.66-52.79Zm-43.8,52.79c0-7.51,6.11-13.62,13.62-13.62s13.62,6.11,13.62,13.62v75.42c0,7.51-6.11,13.62-13.62,13.62s-13.62-6.11-13.62-13.62v-75.42Zm27.25,197.36c0,7.51-6.11,13.62-13.62,13.62s-13.62-6.11-13.62-13.62v-5.44c0-7.51,6.11-13.62,13.62-13.62s13.62,6.11,13.62,13.62v5.44Z"/><path class="cls-23" d="m1086.65,295.76v180.96c0,7.51-6.11,13.62-13.62,13.62s-13.62-6.11-13.62-13.62v-180.96h-47.21v180.96c0,33.55,27.29,60.84,60.84,60.84s60.84-27.29,60.84-60.84v-180.96h-47.21Z"/><path class="cls-23" d="m682.75,247.44h-61.24v290.45h61.24c33.55,0,60.84-27.29,60.84-60.84v-168.77c0-33.55-27.29-60.84-60.84-60.84Zm13.62,229.61c0,7.51-6.11,13.62-13.62,13.62h-14.02v-196.01h14.02c7.51,0,13.62,6.11,13.62,13.62v168.77Z"/><path class="cls-23" d="m812.43,294.06c-33.55,0-60.84,27.29-60.84,60.84v17.15h47.21v-17.15c0-7.51,6.11-13.62,13.62-13.62s13.62,6.11,13.62,13.62v37.55c-4.38-1.01-8.94-1.56-13.62-1.56-33.55,0-60.84,27.29-60.84,60.84v24.99c0,33.55,27.29,60.84,60.84,60.84,8.43,0,16.46-1.72,23.76-4.83l1.75,3.5h35.33v-181.45c-.07-33.48-27.36-60.72-60.84-60.72Zm13.62,182.66c0,7.51-6.11,13.62-13.62,13.62s-13.62-6.11-13.62-13.62v-24.99c0-7.51,6.11-13.62,13.62-13.62s13.62,6.11,13.62,13.62v24.99Z"/><path d="m329.64,535.54c19.14,0,35.75-16.23,35.75-35.37s-16.61-34.72-35.75-34.72-35.77,15.57-35.77,34.72,16.62,35.37,35.77,35.37Zm-27.47-31.79c0-15.15,12.32-27.47,27.47-27.47s27.47,12.32,27.47,27.47-12.32,27.47-27.47,27.47-27.47-12.32-27.47-27.47Zm27.47-36.15c17.96,0,32.58,14.61,32.58,32.58,0,10.85-5.34,20.48-13.52,26.4,6.71-5.44,11.06-13.65,11.06-22.82,0-16.33-13.79-30.92-30.12-30.92s-30.31,14.59-30.31,30.92c0,8.93,4.19,16.95,10.65,22.38-7.84-5.95-12.92-15.37-12.92-25.96,0-17.96,14.61-32.58,32.58-32.58Z"/><path d="m218.42,516.51c1.82,1.25,4.34,2.85,6.01,3.42,1.59.54,3.24.9,4.91,1.05h.05c.63.06,2.37.12,3,.12,11.97,0,23.92-9.85,28.19-24.49,5.15-17.68-2.4-37.04-16.21-41.75-1.59-.54-4.04-.88-5.7-1.03-7.57-.7-14.56,3.28-20.47,9.96-6.4,4.17-11.45,11.31-13.35,20.07-1.67,7.7-.71,15.49,2.72,21.95,2.59,4.88,6.35,8.56,10.85,10.71Zm19.7-59.67c1.5.14,2.98.45,4.41.94,12.74,4.35,19.18,21.39,14.34,37.98-4.21,14.44-15.71,24.15-27.34,23.08h-.04c-.51-.05-1.03-.13-1.54-.22,11.91-.11,23.06-10,26.12-24.08,3.46-15.96-4.76-31.34-18.33-34.28-3.59-.78-7.2-.6-10.63.36,3.77-2.89,7.61-4.27,13-3.78Zm-31.17,27.47c2.86-13.16,13.22-22.4,24.21-22.4,1.37,0,2.76.14,4.14.44,12.42,2.7,18.28,17.16,15.06,31.96-3.21,14.8-14.31,24.42-26.72,21.72-5.98-1.3-11.01-5.29-14.17-11.24-3.19-6.01-4.08-13.29-2.52-20.49Z"/><path d="m426.51,521.09c.63,0,2.37-.06,3-.11h.05c1.67-.16,3.32-.51,4.91-1.05,1.67-.57,4.19-2.17,6.01-3.42,4.5-2.14,8.26-5.83,10.85-10.71,3.43-6.46,4.39-14.25,2.72-21.95-1.9-8.76-6.94-15.9-13.35-20.07-5.91-6.68-12.89-10.66-20.47-9.96-1.67.15-4.11.49-5.7,1.03-13.81,4.71-21.35,24.07-16.21,41.75,4.26,14.64,16.21,24.48,28.19,24.49Zm25.44-36.78c1.56,7.2.67,14.48-2.52,20.49-3.16,5.95-8.19,9.94-14.17,11.24-12.42,2.7-23.51-6.92-26.72-21.72-3.21-14.8,2.65-29.27,15.06-31.96,1.38-.3,2.77-.44,4.14-.44,10.99,0,21.35,9.24,24.21,22.4Zm-35.58-26.53c1.43-.49,2.91-.81,4.41-.94,5.39-.49,9.23.89,13,3.78-3.43-.96-7.04-1.14-10.63-.36-13.57,2.95-21.79,18.33-18.33,34.28,3.06,14.08,14.21,23.97,26.12,24.08-.51.09-1.02.17-1.54.22h-.04c-11.63,1.07-23.14-8.64-27.34-23.08-4.83-16.59,1.6-33.63,14.34-37.98Z"/><path d="m530.19,481.08l-.06.04c-1.25-7-4.16-14.67-9.38-20.32-.21-6.26-2.42-13.18-6.3-19.58-6.05-9.96-14.84-16.44-22.5-17.44-1.74-1.6-3.33-2.62-4.79-3.22-6.14-5.89-13.84-12.51-20.07-17.4,11.06-81.29-7.45-144.52-42.73-185.45l-.07-.08c-21.08-24.45-56.46-36.15-94.65-36.15s-73.57,11.7-94.65,36.15l-.07.08c-35.39,41.05-55.29,103.18-42.69,186.13-6.21,4.87-12.43,10.29-18.51,16.11l.03.03c-1.98.31-4.22,1.42-6.79,3.78-7.66,1-16.45,7.48-22.5,17.44-4.05,6.68-6.31,13.93-6.34,20.4,0,.89.04,1.76.11,2.59-.62,1.25-1.55,3.06-1.93,3.85-2.47,5.14-5.27,9.84-6.18,15.79-3.01,14.41-1.93,24.73.03,36.47,1.88,11.28,12.32,22.57,29.62,32.61,3.57,11.57,12.71,24.24,25.78,31.73,13.23,7.58,29.93,11.75,47.04,11.75,7.12,0,14.17-.71,20.94-2.1l-.02-.19c5.58,7.73,13.47,14.73,22.83,20.09,15.07,8.63,33.36,12.63,52.86,12.63s39.07-3.94,54.1-12.47c9.53-5.41,16.93-12.53,22.13-20.38,6.67,1.25,15.62,2.42,22.07,2.42,17.11,0,33.82-4.17,47.04-11.75,13.07-7.49,22.21-20.16,25.78-31.73,17.31-10.04,27.74-21.33,29.62-32.61,1.98-11.87,3.37-24.6.23-39.26Zm-17.58-38.74c3.86,6.35,6,13.21,6.03,19.3.03,5.89-1.92,10.33-5.49,12.5-3.57,2.17-7.68,1.17-12.89-1.58-5.39-2.84-10.48-7.91-14.34-14.26-3.86-6.35-6-13.21-6.03-19.3-.03-5.89,1.18-9.66,4.76-11.83,1.6-.97,3.43-1.43,5.38-1.43,7.28,0,16.39,6.39,22.58,16.59Zm-24.03-18.62c-1.81.17-3.52.7-5.05,1.63-4.24,2.58-6.56,7.67-6.52,14.35.03,6.48,2.29,13.72,6.34,20.4,4.05,6.68,9.44,12.02,15.17,15.04.9.47,1.78.87,2.66,1.22-6.66-1.31-13.4-5.77-18.67-12.63-10.2-13.27-11.19-31.07-2.2-39.67,2.22-2.13,5.38-1.97,8.27-.35Zm-251.56-204.17l.07-.08c20.56-23.85,55.15-35.19,92.54-35.19s71.99,11.34,92.54,35.19l.07.08c34.3,39.79,49.2,101.05,42.21,180.03-8.15-9.31-28.97-17.37-57.71-22.88-2.75-9.21-5.56-15.69-6.55-17.87.01-.04.02-.06.02-.06,1.37-1.46-1.19-5.5-2.65-6.86-1.35-1.26-3.87-3.48-5.53-3.36-.49.03-1.05.23-1.66.58-.7-.44-1.43-.74-2.16-.92,1.61-1.09,3.22-2.29,4.83-3.62,5.61-5.27,8.65-10.18,10.11-14.22,4.96,4.18,8.9,11.32,10.6,14.75l.67-1.27c.14-.27,4.17-6.48,3.46-16.71-.21-2.99-1.09-5.97-2.29-8.49,5.21,1.9,9.88,5.9,11.7,7.6l.28-1.76c.05-.33,2.23-8.4-2.47-17.08-1.74-3.21-4.24-5.85-6.71-7.49,2.59-1.93,8.65-7.32,7.36-15.3l-2.41.36c-10.86,3.77-22.14-.05-24.47-1.06-.79-2.86-3.96-17.82-10.52-31.72,2.39-3.91,6.75-11.71,8.39-19.13,2.29-10.39,3.6-28.55-1.11-30.9-3.53-1.77-12.82-1.92-23.38,2.02-9.74,3.63-14.17,10.14-15,11.53-1.72-7.64-8.86-18.2-28.78-16.99-15.3.93-23.79,10.52-27.29,15.59-1.86-2.68-6.22-7.28-13.84-10.13-10.56-3.94-19.85-3.78-23.38-2.02-4.71,2.35-3.4,20.51-1.11,30.9,1.64,7.42,6,15.22,8.39,19.13-6.56,13.89-9.74,28.86-10.52,31.72-2.32,1.01-13.61,4.83-24.47,1.06l-2.12-.6c-1.29,7.98,4.58,13.53,7.1,15.52-2.48,1.63-5,4.29-6.74,7.51-4.7,8.68-2.52,16.75-2.47,17.08l.28,1.77c2.77-2.39,7.17-5.74,11.54-7.29-1.12,2.45-1.93,5.31-2.13,8.17-.72,10.23,3.31,16.44,3.46,16.71l1.02,1.93c2.06-4.43,5.83-11.55,10.26-15.4,1.46,4.04,4.5,8.94,10.11,14.21,1.61,1.33,3.22,2.53,4.83,3.62-.73.18-1.47.48-2.16.92-.61-.34-1.17-.54-1.66-.58-1.67-.12-4.18,2.1-5.53,3.36-1.46,1.36-4.03,5.4-2.65,6.86,0,0,0,.03.02.06-.99,2.17-3.78,8.62-6.53,17.8-29.6,5.63-50.42,13.97-58.01,23.58-7.12-79.29,7.76-140.77,42.15-180.67Zm19.15,102.39l-.36-.43c-.46,1.19-.65,2.93-.34,5.08-5,3.98-8.19,10.05-9.47,13.54-.86-2.7-1.87-7.26-1.46-13.09.45-6.4,4.75-13.26,6.01-15.14-1.37.07-2.92,1.24-4.34,3.09-5.56,1.29-9.93,4.72-12.21,6.86,0-2.82.48-7.88,3.37-13.21,2.94-5.42,8.31-9.36,9.72-10.33-1.06-.31-2.38-.12-3.78.47-1.19-.95-6.1-5.21-6.38-10.69,13.05,5.42,27.66-2.41,28.97-5.15l-2.94.9c1.28-4.52,6.47-21.91,14.56-36.14,9.31-16.38,22.53-28.59,22.15-26.95l.18,2.82,2.11-4.05c.08-.14,7.21-16.26,26.6-17.44,14.64-.88,23.57,4.53,25.73,14.32,1.92,8.69-4.02,17.6-11.2,21.91,1.37-4.94,3.26-13.26-3.05-17.38,1.05,2.11,1.66,4.25,1.94,6.34l-.03-.02c-.02.11-2.15,10.22-9.97,13.4,1.72-7.76.62-17.48-4.56-20.37.99,1.98,1.79,4.38,2.31,6.97-.65,2.11-2.75,7.53-7.99,10.28,2.63-15.52-11.43-19.16-11.56-19.2l-1.66-.16c.49.14,13.16,5.9,10.88,20.93l-.27,1.79,1.7-.62c5.68-1.78,8.32-5.15,9.56-7.97.17,3.09-.05,6.26-.8,9.21-.06.23-.1.4-.13.52l-.37,1.68,1.68-.41c5.9-1.44,9.18-5.12,11-8.42-.36,1.92-.91,3.69-1.51,5.22l-.96,2.44,3.32-1.12c5.11-1.91,9.11-5.24,11.72-9.3,1.01.09,2.02.26,2.95.58,2.54.88,5.29,2.59,6.94,3.74-.34-.92-1.82-4.24-6.24-5.76-.87-.3-1.71-.47-2.52-.54,1.7-3.37,2.5-7.14,2.26-10.99l1.29.9c1.81,1.02,13.74,11.3,23.05,27.67,8.09,14.23,13.28,31.62,14.56,36.14l-2.94-.9c1.31,2.74,15.91,10.56,28.97,5.15-.28,5.48-5.19,9.73-6.38,10.69-1.4-.59-2.72-.78-3.78-.47,1.41.97,6.79,4.91,9.72,10.33,2.89,5.34,3.37,10.39,3.37,13.21-2.28-2.14-6.64-5.57-12.21-6.86-1.42-1.84-2.98-3.02-4.34-3.09,1.26,1.88,5.56,8.74,6.01,15.14.41,5.83-.6,10.39-1.46,13.09-1.28-3.49-4.47-9.56-9.47-13.54.31-2.16.12-3.9-.34-5.08l-.36.43c0,.09-1.03,9.29-12.17,19.76-15.02,12.41-30.51,14.43-37.03,14.69,4.78-3.91,6.65-7.93,6.87-8.19l-1.64,1.34c-.1.12-10.51,10.39-28.96,10.56-18.46.18-31.69-11.19-31.82-11.32l-1.52-1.22c.29.29,2.37,4.66,7.77,8.82-6.76-.34-21.89-2.55-36.57-14.67-11.14-10.47-12.17-19.66-12.17-19.76Zm42.72-104.28l-.08.03.02.02c-1.01.87-3.14,2.71-5.85,5.31,0,0,0-.01,0-.02-1.61-2.49-6.56-9.94-13.51-13.97-4.82-2.8-12.21-1.73-14.42,1.48,2.12-.99,7.63-2.99,13.35.38,6.48,3.81,11.26,10.92,12.79,13.28.09.14.17.26.25.38-5.26,5.23-12.07,12.86-17.11,21.74-.36.63-.71,1.28-1.05,1.92-2.31-3.79-6.03-10.61-7.41-17.29-2.71-13.09-2.77-25.91-.92-26.83,2.61-1.3,10.35-1.81,20.99,2.16,8.2,3.06,12.13,9.22,13.22,11.2-.07.06-.15.13-.24.21Zm86.4,28.63c-5.05-8.88-11.85-16.51-17.11-21.74.08-.12.16-.24.25-.38,1.52-2.36,6.31-9.47,12.79-13.28,5.72-3.37,11.23-1.37,13.35-.38-2.21-3.21-9.6-4.28-14.42-1.48-6.95,4.03-11.91,11.48-13.51,13.97,0,0,0,.01,0,.02-2.86-2.75-5.07-4.64-6.01-5.45,1.16-1.97,5.22-8.39,13.08-11.32,10.64-3.97,18.38-3.46,20.99-2.16,1.85.92,1.79,13.74-.92,26.83-1.38,6.68-5.1,13.5-7.41,17.29-.34-.65-.69-1.29-1.05-1.92Zm-76.31,127.65c-15.01-3.63-25.34-11.15-27.09-20.06,2.81,1.18,5.52,2.06,8.07,2.72,4.43,8.73,20.46,14.77,39.49,14.77.12,0,.23,0,.35,0,.12,0,.23,0,.35,0,19.03,0,35.06-6.04,39.49-14.77,2.58-.67,5.33-1.57,8.18-2.77-2.48,12.57-22.37,22.39-48.03,22.44-7.43-.01-14.48-.85-20.82-2.33Zm-.71-15.32c5.03,2.96,12.09,5.35,21.86,5.35.13,0,.26,0,.39,0,9.23,0,15.87-2.41,20.56-5.34.77-.04,1.45-.06,1.81-.06,2.49,0,7.15,0,12.99-1.13-5.28,6.84-19.73,11.71-36.07,11.78-16.34-.07-30.8-4.94-36.07-11.78,5.84,1.12,10.5,1.13,12.99,1.13.32,0,.89.02,1.55.04Zm-32.68-7.82c.67.38,1.33.74,1.99,1.08.71,14.7,23.78,26.54,52.05,26.54.06,0,.12,0,.18,0,.06,0,.12,0,.18,0,28.27,0,51.33-11.84,52.05-26.54.66-.34,1.32-.71,1.99-1.08,1.46-.03,2.87.16,3.78.61-2.47,3.03-4.91,8.63-5.55,17.61-.81,11.57,2.5,23.08,3.14,25.2-1.5.46-2.68,1.22-3.57,2,1.06-1.93,1.66-4.14,1.66-6.49,0-7.46-6.07-13.52-13.52-13.52s-13.52,6.07-13.52,13.52c0,3.64,1.46,6.95,3.81,9.39-.66.12-1.35.34-1.95.74-1.01.66-1.67,1.71-1.9,3.02-.37,2.11.07,4,1.3,5.62.49.65,1.11,1.16,1.78,1.59-1.48.19-2.91.87-3.56,2.65l-.05.19c-.34,2,.19,3.95,1.56,5.62.5.61,1.09,1.13,1.72,1.6-1.04.47-1.99,1.29-2.22,2.65-.09.54-.12,1.47.33,2.57-8.95.6-18.23.92-27.62.92s-18.45-.31-27.29-.9c.46-1.11.42-2.05.33-2.59-.23-1.36-1.18-2.18-2.22-2.65.63-.47,1.22-.99,1.72-1.6,1.36-1.68,1.9-3.62,1.56-5.62l-.05-.19c-.65-1.78-2.08-2.45-3.56-2.65.67-.42,1.29-.94,1.78-1.59,1.23-1.61,1.67-3.51,1.3-5.62-.23-1.31-.88-2.36-1.9-3.02-.61-.4-1.29-.62-1.95-.74,2.35-2.43,3.81-5.74,3.81-9.39,0-7.46-6.07-13.52-13.52-13.52s-13.52,6.07-13.52,13.52c0,2.35.6,4.56,1.66,6.49-.89-.77-2.07-1.54-3.57-2,.64-2.12,3.96-13.63,3.14-25.2-.63-8.98-3.07-14.58-5.55-17.61.91-.45,2.32-.65,3.78-.61Zm135.39,39.98c11.81,3.85,18.31,8.39,18.31,12.86,0,2.61-2.64,9.23-26.54,15.2.18-.46.35-.94.49-1.43,1.99-1.68,8.58-7.72,9.06-15.16.25-3.94-.37-7.73-1.33-11.46Zm-47.6,44.44c1.07,1.62,3.58,2.74,6.59,2.74s5.52-1.11,6.58-2.73c1.76.56,2.2,1.16,2.21,1.27-.05.62-3.19,2.14-8.79,2.14s-8.75-1.52-8.79-2.14c0-.11.44-.71,2.21-1.27Zm11.58-1.76c0,1.11-2.14,2.36-4.99,2.36s-4.99-1.24-4.99-2.36v-2.58c1.8.54,3.89.96,6.27,1.26.72.09,1.45.13,2.16.13.52,0,1.04-.02,1.55-.07v1.26Zm-3.45-4.22c-7.62-.95-9.84-2.12-11.01-3.68-.77-1.03-.77-1.88-.7-2.29.13-.77.87-1.48,1.41-1.89,2.48,1.09,5.51,1.37,8.71.8l.09-.09c-3.48-.12-8.07-1.81-10.25-4.48-.96-1.19-1.33-2.43-1.12-3.81.67-1.66,2.62-2.28,3.76-2.49,3.16.8,6.41.43,6.61.45l-.17-.41c-.07,0-6.21-.63-8.82-4.06-.86-1.14-1.16-2.43-.89-3.95.13-.73.44-1.25.95-1.59,1.07-.7,2.24-.6,2.87-.46,2.05,1.25,4.44,1.98,7.01,1.98.17,0,.33-.02.5-.03h0s.1,0,.16,0c1.19-.06,2.34-.26,3.42-.6,2.5-.51,5.67-1.32,7.59-2.42,2.14.23,5.55,1.35,7.86,5.51,2.57,4.62,3.18,12.49.55,16.1-2.45,3.36-10.4,8.45-18.55,7.43Zm-1.54-28.47c-6.09,0-11.04-4.95-11.04-11.04s4.95-11.04,11.04-11.04,11.04,4.95,11.04,11.04-4.95,11.04-11.04,11.04Zm21.83,22.3c3.12-4.29,3.16-13.83-.37-19.01-3.05-4.48-6.64-5.46-8.7-5.62,1.06-1,3.09-2.5,5.71-2.5h0c3.14,0,6.4,1.59,9.57,5.74,3.69,4.83,5.59,15.71.15,20.34-2.26,1.92-5.08,1.95-6.65,1.4.09-.12.19-.23.27-.35Zm16.74-21.12c-.3,4.68-2.67,8.69-4.5,11.14.32-4.39-.7-9.21-3.64-13.06-2.9-3.79-6.4-5.52-9.65-6.05-.2-1.62-2.22-19.11,3.27-30.51,1.24-1.76,2.47-2.66,3.43-3.09,1.5,3.27,4.97,10.37,7.43,18.84l.2.69c2.31,7.98,3.98,14.19,3.48,22.05Zm-16.38-40.72l-.08.14c-5.4,9.64-3.87,28.79-3.51,32.43-.04,0-.08,0-.13,0,0,0-.01,0-.02,0-.31,0-.61.01-.91.03-.35-1.21-3.38-12.28-2.57-23.81.96-13.68,5.62-18.45,7.11-18.56.52-.04,1.79.59,3.35,2.04,1.36,1.27,2.32,2.54,2.82,3.47-1.62.21-3.96,1.21-6.08,4.26Zm-92.36,62.04c.07.41.07,1.26-.7,2.29-1.16,1.56-3.39,2.73-11.01,3.68-8.16,1.02-16.11-4.07-18.55-7.43-2.63-3.61-2.01-11.48.55-16.1,2.32-4.16,5.73-5.28,7.86-5.51,1.92,1.1,5.1,1.92,7.59,2.42,1.09.35,2.24.54,3.42.6.06,0,.12.02.16.02h0c.17,0,.33.01.5.01,2.57,0,4.96-.73,7.01-1.98.63-.14,1.81-.25,2.87.46.52.34.83.86.95,1.59.26,1.52-.03,2.81-.89,3.95-2.6,3.43-8.75,4.05-8.82,4.06l-.17.41c.2-.02,3.46.36,6.61-.45,1.13.21,3.08.84,3.76,2.49.21,1.38-.16,2.62-1.12,3.81-2.17,2.67-6.77,4.36-10.25,4.48l.09.09c3.2.57,6.23.29,8.71-.8.54.42,1.28,1.12,1.41,1.89Zm-16.74,11.95c1.07,1.62,3.58,2.73,6.58,2.73s5.52-1.11,6.59-2.74c1.77.56,2.2,1.16,2.21,1.27-.05.62-3.19,2.14-8.79,2.14s-8.75-1.52-8.79-2.14c0-.11.44-.7,2.21-1.27Zm11.58-1.77c0,1.11-2.14,2.36-4.99,2.36s-4.99-1.24-4.99-2.36v-1.26c.52.04,1.03.07,1.55.07.72,0,1.44-.04,2.16-.13,2.38-.3,4.47-.72,6.27-1.26v2.58Zm-47.34-31.21c.48,7.45,7.07,13.48,9.06,15.16.16.53.33,1.04.53,1.53-24.23-5.99-26.91-12.66-26.91-15.3,0-4.52,6.62-9.1,18.68-12.98-.98,3.78-1.61,7.6-1.36,11.58Zm14.29-.56c3.17-4.14,6.43-5.74,9.57-5.74h0c2.62,0,4.65,1.5,5.71,2.5-2.05.16-5.64,1.14-8.7,5.62-3.52,5.18-3.48,14.73-.37,19.01.08.11.18.23.27.35-1.57.55-4.39.52-6.65-1.4-5.44-4.63-3.54-15.51.15-20.34Zm28.05-.91c-6.09,0-11.04-4.95-11.04-11.04s4.95-11.04,11.04-11.04,11.04,4.95,11.04,11.04-4.95,11.04-11.04,11.04Zm-14.99-30.75c.81,11.53-2.22,22.6-2.57,23.81-.29-.02-.59-.04-.91-.03,0,0-.01,0-.02,0-.04,0-.08,0-.13,0,.36-3.64,1.89-22.79-3.51-32.43l-.08-.14c-2.11-3.05-4.45-4.05-6.08-4.26.51-.93,1.46-2.2,2.82-3.47,1.56-1.45,2.84-2.08,3.35-2.04,1.49.11,6.15,4.88,7.11,18.56Zm-12.49-9.64c.96.44,2.19,1.33,3.43,3.09,5.49,11.4,3.47,28.9,3.27,30.51-3.26.53-6.75,2.25-9.65,6.05-2.94,3.84-3.96,8.67-3.64,13.06-1.84-2.45-4.2-6.46-4.5-11.14-.5-7.86,1.16-14.07,3.48-22.05l.2-.69c2.45-8.47,5.92-15.57,7.43-18.84Zm-12.83,27.82c-14.06,4.32-21.5,9.65-21.5,15.44,0,4.87,5.26,11.91,30.33,17.81v-.02c.56.86,1.19,1.62,1.89,2.22,1.88,1.6,4.1,2.22,6.05,2.22,1.37,0,2.59-.3,3.49-.78,2.91,2.85,7.66,5.8,12.91,6.81v1.25c-3.12.97-3.8,2.34-3.8,3.35,0,2.94,5.67,4.28,10.94,4.28s10.94-1.34,10.94-4.28c0-1.01-.69-2.38-3.8-3.34v-3.03c1.78-.74,3.17-1.63,4.18-2.67,9.27.65,18.92.98,28.68.98s19.63-.34,29-1c1.01,1.05,2.41,1.95,4.19,2.69v3.03c-3.11.97-3.8,2.33-3.8,3.34,0,2.94,5.67,4.28,10.94,4.28s10.94-1.34,10.94-4.28c0-1.01-.68-2.38-3.8-3.35v-1.25c5.25-1.01,10-3.95,12.91-6.81.9.47,2.13.78,3.49.78,1.95,0,4.17-.61,6.05-2.22.8-.68,1.5-1.57,2.12-2.59l.06.24c24.55-5.88,29.7-12.85,29.7-17.66,0-5.73-7.31-11.03-21.13-15.33-.9-3.1-1.96-6.17-2.88-9.29,35.19,6.88,56.15,17.82,56.15,29.37,0,9.29-14.13,18.52-38.76,25.32-25.41,7.01-59.21,10.88-95.18,10.88s-69.77-3.86-95.18-10.88c-24.63-6.8-38.76-16.03-38.76-25.32,0-11.59,21.09-22.56,56.51-29.44-.91,3.1-1.96,6.17-2.87,9.25Zm-70.75,35.86c8.98,8.6,8,26.4-2.2,39.67-5.27,6.86-12.01,11.32-18.67,12.63.88-.34,1.77-.74,2.66-1.22,5.73-3.02,11.12-8.36,15.17-15.04,4.05-6.68,6.31-13.93,6.34-20.4.04-6.68-2.28-11.77-6.52-14.35-1.53-.93-3.24-1.46-5.05-1.63,2.89-1.62,6.05-1.78,8.27.35Zm-32.3,18.28c6.19-10.21,15.3-16.59,22.58-16.59,1.96,0,3.78.46,5.38,1.43,3.57,2.17,4.79,5.93,4.76,11.83-.03,6.09-2.17,12.95-6.03,19.3-3.86,6.35-8.95,11.42-14.34,14.26-5.21,2.75-9.32,3.74-12.89,1.58-3.57-2.17-5.52-6.61-5.49-12.5.03-6.09,2.17-12.95,6.03-19.3Zm-7.48,26.95c.1-.21.2-.43.31-.65,1.06,3.24,2.93,5.76,5.52,7.33.48.29.97.54,1.48.76,1.18.92,2.49,1.63,4.19,1.91,1.11.18,2.23.27,3.37.27,8.57,0,18.59-5.05,25.34-13.84,10.84-14.11,11.98-34.53,2.29-42.45-1.16-.95-2.44-1.81-3.89-2.3,4.72-4.44,9.52-8.63,14.32-12.5,0,.19-.03.37-.03.56,0,10.48,16.18,22.38,42.19,29.56,25.59,7.06,59.6,10.95,95.75,10.95s70.16-3.89,95.75-10.95c25.88-7.14,42.7-18.96,42.87-29.41,4.45,3.65,8.9,7.59,13.3,11.76-1.47.49-2.78,1.36-3.95,2.32-9.69,7.93-8.55,28.34,2.29,42.45,6.75,8.79,16.77,13.84,25.34,13.84,1.13,0,2.26-.09,3.37-.27,1.69-.28,3-.99,4.19-1.91.51-.22,1-.47,1.48-.76,3.26-1.98,5.38-5.45,6.17-9.98,6.59,9.1,6.85,20.68,5.94,26.18-2.61,15.66-24.04,31.15-58.8,42.51-36.83,12.04-85.67,18.67-137.52,18.67h-.42c-52.06,0-101.08-6.6-138.02-18.6-35.07-11.39-56.32-26.89-58.28-42.53-1.15-9.17,2.07-15.86,5.48-22.95Zm93.79,122.11c-32.22,0-60.57-15.12-69.12-36.38,7.94,4.29,17.16,8.32,27.53,12,16.41,5.81,35.27,10.47,55.57,13.88,1.02,3.01,2.39,6,4.11,8.9-5.88,1.06-11.96,1.6-18.09,1.6Zm148.57,18.43c-14.61,8.3-33.07,11.92-51.96,11.92-37.14,0-67.34-15.43-76.68-39.9,24.64,3.8,51.2,5.8,77.94,5.84v.13c25.92,0,51.26-1.87,74.87-5.44-4.1,11.02-11.05,20.01-24.17,27.45Zm46.33-18.43c-6.59,0-13.11-.63-19.39-1.85,1.44-2.68,2.63-5.42,3.58-8.18,20.89-3.47,40.31-8.3,57.41-14.35,10.37-3.67,19.59-7.71,27.53-12-8.55,21.26-36.9,36.38-69.12,36.38Zm-96.17-7.83v-.07c-111.18,0-191.11-30.94-196.36-62.4-1.25-7.47-2.77-14.76-2.97-22.69,6.4,14.62,27.05,28.72,58.75,39.02,37.21,12.08,86.53,19.28,138.88,19.28h.42c52.13,0,101.28-7.23,138.38-19.35,30.77-10.06,51.95-22.03,59.41-35.78-.53,6.2-1.81,12.03-2.86,18.32-5.24,31.38-82.93,63.51-193.65,63.69Z"/><path d="m276.25,294.53c.1-.03.21-.06.31-.08,3.11.61,6.25,1.4,9.56,2.58,9.34,3.35,14.27,5.64,14.8,5.11,1.07-1.07-2.87-3.16-11.98-6.34-2.75-.96-5.44-1.78-8.15-2.39,4.03-.9,8.96-1.72,12.88-1.65,4.17.08,7.42.45,9.67.81-2.07,1.21-3.85,2.68-5.31,4.44,4.58-2.42,13.15-4.76,19.72-5.34-.35.66-.58,1.36-.64,2.1-.14,1.56,1.53,3.57,2.25,4.37,1.09,1.19,5.06,5.08,10.44,5.08,6.82,0,12.7-6.27,12.7-9.35,0-.76-.19-1.49-.52-2.18,6.55.6,15.05,2.92,19.6,5.33-1.45-1.75-3.23-3.23-5.31-4.44,2.24-.36,5.49-.72,9.67-.81,4.04-.08,9.14.8,13.24,1.73-2.59.6-5.17,1.39-7.8,2.31-9.11,3.19-13.05,5.27-11.98,6.34.53.53,5.46-1.76,14.8-5.11,3.16-1.13,6.17-1.9,9.15-2.5,0,0,0,0,.01,0,0,0,0,0,0,0,3.96-.8,7.86-1.3,11.98-1.9-4.84-.71-9.39-.47-13.88.38-.65-.41-1.4-.81-2.22-1.18.77-.82,2.37-2.14,5.36-3.25-3.54-1.31-6.29,1.08-7.48,2.39-.54-.19-1.1-.37-1.67-.54,1.06-3.74,3.26-15.27-6.18-28.46-6.24-8.71-15.65-12.61-21.59-13.22-5.03-.51-7.5,1.33-8.57,2.53,2.93-.96,10.21-1.43,17.62,3-1.76,0-3.67.32-5.57.97-3.52,1.2-10.51,4.53-13.34,13.26-2.91,8.97.97,16.17,3.95,20.04-.99-.08-2.01-.13-3.05-.15-2.28-1.33-5.4-2.14-8.91-2.14s-6.48.8-8.75,2.13c-1.08.02-2.14.07-3.17.15,3.02-3.87,6.95-11.07,4.04-20.04-2.83-8.73-9.95-12.05-13.47-13.26-1.9-.65-3.81-.96-5.57-.97,7.41-4.42,14.69-3.96,17.62-3-1.07-1.2-3.54-3.04-8.57-2.53-5.94.6-15.35,4.51-21.59,13.22-9.44,13.18-7.24,24.72-6.18,28.46-.57.17-1.13.35-1.67.54-1.18-1.31-3.94-3.71-7.48-2.39,2.99,1.11,4.59,2.42,5.36,3.25-.76.34-1.46.7-2.07,1.08-4.31-.76-8.69-.95-13.33-.28,3.92.57,7.64,1.05,11.4,1.78-.04.04-.09.08-.13.12Zm65.61-10.05c.92.5,1.98.78,3.1.78,3.62,0,6.55-2.93,6.55-6.55s-2.93-6.55-6.55-6.55c-2.26,0-4.25,1.14-5.43,2.88.03-1.83.31-3.79.99-5.86,2.54-7.84,8.19-10.82,11.33-11.89,4.06-1.39,7.55-.92,9.07.12l.02-.03c1.72,1.52,3.41,3.36,5,5.58,5.56,7.76,7.18,15,7.57,19.7.27,3.26,0,5.79-.25,7.2-2.7-.62-5.61-.97-8.39-.92-6.01.12-10.24,1.17-12.4,1.84-2.28-.86-4.81-1.48-7.57-1.87-.84-.95-2-2.45-3.03-4.41Zm.47-5.78c0-1.45,1.17-2.62,2.62-2.62s2.62,1.17,2.62,2.62-1.17,2.62-2.62,2.62-2.62-1.17-2.62-2.62Zm-12.53,9.7c5.72,0,9.72,2.49,9.72,5.45,0,1.51-3.65,7.21-9.72,7.21-4.32,0-6.73-2.71-7.66-3.68-1.4-1.46-2.08-3.11-2.07-3.43.25-2.73,3.43-5.54,9.73-5.54Zm-43.69-5.76c.38-4.7,2.01-11.94,7.57-19.7,1.59-2.22,3.27-4.06,5-5.58l.02.03c1.52-1.03,5-1.51,9.07-.12,3.14,1.08,8.79,4.05,11.33,11.89.67,2.07.96,4.03.99,5.86-1.18-1.74-3.17-2.88-5.43-2.88-3.62,0-6.55,2.93-6.55,6.55s2.93,6.55,6.55,6.55c1.12,0,2.17-.28,3.1-.78-1.03,1.96-2.2,3.46-3.03,4.41-2.75.39-5.29,1.01-7.57,1.87-2.16-.68-6.39-1.72-12.4-1.84-2.78-.05-5.69.3-8.39.92-.24-1.41-.51-3.93-.25-7.2Zm31.16-3.94c0,1.45-1.17,2.62-2.62,2.62s-2.62-1.17-2.62-2.62,1.17-2.62,2.62-2.62,2.62,1.17,2.62,2.62Z"/><path d="m311.24,232.39c-2.03-1.77-5.58-3.13-9.62-1.73-4.41,1.53-5.9,4.84-6.24,5.76,1.65-1.15,4.39-2.86,6.94-3.74,3.12-1.08,7.18-.59,8.92-.3Z"/><path d="m266.9,319.57c6.74-2.81,12.71-5.58,20.39-7.11.92-.18,1.78-.35,2.62-.51.19.2.38.4.58.6l-.03.02c.12.12,11.65,11.74,15.51,16,7.75,8.55,16,17.78,23.83,17.78s16.39-9.81,23.61-17.78c3.86-4.25,15.6-15.87,15.72-15.99l-.03-.03c.25-.23.47-.48.7-.72,1.01.19,2.08.4,3.21.62,7.68,1.53,13.65,4.3,20.39,7.11-6.57-5.38-13.84-7.88-22.02-9.59,1.25-1.65,2.14-3.33,2.77-4.84,1.4-.03,2.92-.06,4.57-.07,7.83-.06,14.24,1.43,21.41,2.81-6.55-3.42-13.18-4.59-20.3-4.85-.55-2.09-2.36-4.22-4.7-4.77-2.61-.62-5.09.34-6.14,1.64.94-.03,3.08-.04,5.02.32-.16.62-.46,1.6-.94,2.78-7.28.15-10.58.81-10.01,2,.24.5,3.32.33,8.98.18-.74,1.38-1.71,2.87-2.98,4.32-7.95-1.55-11.71-1.65-11.37-.3.14.57,3.48,1.04,9.55,2.15-2.28,2.04-5.27,3.84-9.19,4.88-18.32,4.83-26.64-9.12-26.98-9.71l-.89-1.55-.95,1.52c-.37.6-9.36,14.58-27.71,9.75-3.88-1.02-6.83-2.77-9.1-4.76,6.47-1.18,10.02-1.67,10.16-2.26.35-1.39-3.61-1.25-12.01.42-1.33-1.5-2.35-3.04-3.1-4.47,6.14.16,9.48.36,9.73-.16.59-1.23-2.96-1.89-10.74-2.02-.47-1.17-.76-2.15-.92-2.77,1.94-.36,4.09-.35,5.03-.32-1.05-1.3-3.53-2.25-6.14-1.64-2.35.55-4.17,2.7-4.71,4.8-6.85.31-13.25,1.51-19.58,4.82,7.17-1.38,13.58-2.88,21.41-2.81,1.43.01,2.75.03,3.99.06.61,1.56,1.49,3.29,2.76,4.98-7.94,1.71-15.02,4.21-21.43,9.46Zm108.6-18.94c1.4.55,2.85,1.58,3.86,2.39-.95-.03-1.92-.04-2.89-.04-.53,0-1.04,0-1.55,0,.29-.97.47-1.77.57-2.36Zm-44.23,9.7c2,2.31,5.5,5.55,10.57,7.46-.02,1.45-.99,2.86-2.68,3.87-2.1,1.25-4.66,1.51-6.23.62-1.1-.62-1.66-1.78-1.66-3.44v-8.51Zm-2.14-.23v8.74c0,1.66-.56,2.81-1.66,3.44-1.57.89-4.13.64-6.23-.62-1.74-1.04-2.72-2.49-2.69-3.99h-.27c5.2-2,8.82-5.3,10.85-7.57Zm-7.09,20.76c4.05.07,6.86,2.96,6.88,2.98l.75.79.78-.76s3.05-2.93,7.13-3.01c5.21-.08,7.43,2.06,8.03,2.81-5.24,5.11-10.73,9.22-15.8,9.22s-11.11-4.43-16.69-9.92c.8-.66,3.27-2.19,8.92-2.1Zm-38.2-27.88c-1.23,0-2.43.02-3.63.07,1.07-.86,2.65-1.98,4.13-2.5.09.6.24,1.44.52,2.44-.34,0-.67,0-1.02,0Z"/><path d="m329.8,410.83c9.22,0,16.72-6.55,16.72-14.61s-7.5-14.61-16.72-14.61-16.72,6.55-16.72,14.61,7.5,14.61,16.72,14.61Zm0-27.07c8.04,0,14.58,5.59,14.58,12.46s-6.54,12.46-14.58,12.46-14.58-5.59-14.58-12.46,6.54-12.46,14.58-12.46Z"/><path d="m329.8,406.12c6.62,0,12.01-4.44,12.01-9.89s-5.39-9.89-12.01-9.89-12,4.44-12,9.89,5.39,9.89,12,9.89Zm0-18.5c5.91,0,10.72,3.86,10.72,8.61s-4.81,8.61-10.72,8.61-10.72-3.86-10.72-8.61,4.81-8.61,10.72-8.61Z"/><path class="cls-9" d="m207.63,379.77c-2.74,0-5.11-2.03-5.47-4.82-.06-.51-1.56-12.63.34-33.83.27-3.04,2.95-5.27,5.99-5.01,3.04.27,5.28,2.95,5.01,5.99-1.78,19.87-.39,31.34-.38,31.45.38,3.02-1.76,5.78-4.79,6.16-.23.03-.47.04-.7.04Z"/><path class="cls-9" d="m210.49,327.39c-.29,0-.59-.02-.89-.07-3.01-.49-5.05-3.32-4.57-6.33,1.68-10.41,3.96-21.12,6.79-31.85,9.7-36.87,29.35-63.4,30.18-64.51,1.83-2.44,5.29-2.94,7.73-1.11,2.44,1.83,2.94,5.28,1.11,7.72h0c-.19.26-19.22,26.01-28.35,60.71-2.73,10.38-4.94,20.75-6.57,30.8-.44,2.71-2.78,4.64-5.44,4.64Z"/><path class="cls-9" d="m451.96,379.77c-.09,0-.17,0-.26,0-3.04-.14-5.4-2.72-5.26-5.77.01-.31,1.4-31.06-1.32-50.71-5.19-37.65-14.88-55.01-14.97-55.18-1.5-2.64-.59-6.01,2.05-7.53,2.64-1.51,6-.61,7.52,2.02.44.76,10.81,19.09,16.34,59.17,2.85,20.67,1.47,51.43,1.41,52.73-.14,2.96-2.58,5.26-5.51,5.26Z"/><polygon class="cls-12" points="117.11 223.16 152.88 213.82 140.29 248.58 160.23 279.71 123.28 278.47 99.84 307.06 89.59 271.54 55.16 258.07 85.78 237.35 87.94 200.45 117.11 223.16"/><polygon class="cls-12" points="590.28 584.22 574.63 611.28 561.23 583.05 530.66 576.53 553.37 555.05 550.12 523.97 577.56 538.93 606.12 526.24 600.38 556.96 621.27 580.2 590.28 584.22"/><polygon class="cls-13" points="595.81 248.89 597.97 275.25 575.04 262.08 550.64 272.28 556.08 246.4 538.84 226.35 565.13 223.52 578.87 200.93 589.68 225.06 615.42 231.15 595.81 248.89"/><polygon class="cls-13" points="116.2 568.7 131.56 584 110.25 587.97 100.45 607.3 90.08 588.26 68.67 584.91 83.57 569.18 80.14 547.77 99.71 557.09 119.01 547.21 116.2 568.7"/><path class="cls-20" d="m965.05,304.71l7.64-17.68h-28.7l-7.84,13.02c-27.6,3.01-49.15,26.45-49.15,54.83v75.42c0,24.14,15.59,44.69,37.23,52.16v12.19c-21.64,7.46-37.23,28.02-37.23,52.16v5.44c0,30.42,24.75,55.17,55.17,55.17s55.17-24.75,55.17-55.17v-5.44c0-24.14-15.59-44.7-37.23-52.16v-12.19c21.64-7.46,37.23-28.02,37.23-52.16v-75.42c0-22.26-13.26-41.47-32.29-50.18Zm-3.59,247.54c0,10.64-8.65,19.29-19.29,19.29s-19.29-8.65-19.29-19.29v-5.44c0-10.64,8.65-19.29,19.29-19.29s19.29,8.65,19.29,19.29v5.44Zm0-121.94c0,10.64-8.65,19.29-19.29,19.29s-19.29-8.65-19.29-19.29v-75.42c0-10.64,8.65-19.29,19.29-19.29s19.29,8.65,19.29,19.29v75.42Z"/><path class="cls-20" d="m1092.32,301.43v175.29c0,10.64-8.65,19.29-19.29,19.29s-19.29-8.65-19.29-19.29v-175.29h-35.88v175.29c0,30.42,24.75,55.17,55.17,55.17s55.17-24.75,55.17-55.17v-175.29h-35.88Z"/><path class="cls-20" d="m682.75,253.11h-55.57v279.11h55.57c30.42,0,55.17-24.75,55.17-55.17v-168.77c0-30.42-24.75-55.17-55.17-55.17Zm19.29,223.94c0,10.64-8.65,19.29-19.29,19.29h-19.69v-207.35h19.69c10.64,0,19.29,8.65,19.29,19.29v168.77Z"/><path class="cls-20" d="m812.43,299.73c-30.42,0-55.17,24.75-55.17,55.17v11.48h35.88v-11.48c0-10.64,8.65-19.29,19.29-19.29s19.29,8.65,19.29,19.29v45.15c-6.01-2.25-12.51-3.49-19.29-3.49-30.42,0-55.17,24.75-55.17,55.17v24.99c0,30.42,24.75,55.17,55.17,55.17,9.53,0,18.51-2.43,26.34-6.7l2.68,5.37h26.15v-175.77c-.06-30.37-24.79-55.06-55.17-55.06Zm19.29,176.99c0,10.64-8.65,19.29-19.29,19.29s-19.29-8.65-19.29-19.29v-24.99c0-10.64,8.65-19.29,19.29-19.29s19.29,8.65,19.29,19.29v24.99Z"/></g></svg>