<?xml version="1.0" encoding="UTF-8"?>
<svg version="1.1" xmlns="http://www.w3.org/2000/svg" width="1024" height="1024">
<path d="M0 0 C0 0.66 0 1.32 0 2 C0.99 1.67 1.98 1.34 3 1 C21.39271291 8.62691838 37.61922414 22.63263452 52 36 C52.99773437 36.91652344 52.99773437 36.91652344 54.015625 37.8515625 C70.33977604 53.44577183 82.24422325 73.58375914 92.328125 93.56640625 C98.37221374 105.51419636 104.13677646 116.87534389 113 127 C113.63679687 127.83917969 114.27359375 128.67835938 114.9296875 129.54296875 C125.88979629 142.55034314 142.89534967 147.88967272 158.44287109 153.12988281 C163.18743643 154.7443215 167.90210612 156.443911 172.61987305 158.13476562 C175.72751372 159.23867954 178.80168933 160.20881729 182 161 C184.72392736 161.8495113 187.44142047 162.71217572 190.15625 163.58984375 C190.96327866 163.85008835 191.77030731 164.11033295 192.60179138 164.37846375 C195.23526457 165.22921813 197.8677623 166.08293109 200.5 166.9375 C201.84241257 167.37277008 201.84241257 167.37277008 203.21194458 167.8168335 C218.01265841 172.62317832 232.68497355 177.70342379 247.30444336 183.03491211 C250.51083173 184.18289266 253.73933647 185.25255489 256.97436523 186.31640625 C260.03889538 187.35059745 263.04909821 188.5138593 266.0625 189.6875 C267.18785156 190.12449219 268.31320312 190.56148437 269.47265625 191.01171875 C270.30667969 191.33785156 271.14070312 191.66398438 272 192 C272 192.66 272 193.32 272 194 C272.99 193.67 273.98 193.34 275 193 C277.01782227 193.61743164 277.01782227 193.61743164 279.31640625 194.66015625 C280.15864746 195.03889893 281.00088867 195.4176416 281.86865234 195.80786133 C282.75762207 196.22189209 283.6465918 196.63592285 284.5625 197.0625 C285.46693848 197.47717529 286.37137695 197.89185059 287.30322266 198.3190918 C293.45407664 201.17829082 299.34310051 204.24438208 305 208 C305.99 208.598125 306.98 209.19625 308 209.8125 C317.02661786 216.39440886 324.71410203 222.99885707 326.5625 234.5 C324.75264475 245.76132153 318.48976021 252.87625862 311 261 C310.33871094 261.7321875 309.67742188 262.464375 308.99609375 263.21875 C273.42385913 300.71173163 217.91319065 324.02893645 170 340 C144.26303139 349.12632725 125.51068494 361.59784858 108.25390625 383.23828125 C105.10016205 387.1025744 101.73293181 390.75363324 98.359375 394.42578125 C94.40453615 398.74074616 90.50598739 403.09536889 86.875 407.6875 C57.49506067 443.92275851 7.76253926 468.36284874 -38.02587891 473.328125 C-100.11630505 479.49040035 -161.51306411 465.06363483 -210.5 425.625 C-214.20873501 422.56149046 -217.7821176 419.39176673 -221.3125 416.125 C-238.19277004 400.68954623 -253.15391362 393.02410855 -276.18359375 390.3515625 C-278.50196379 390.06844666 -280.82032276 389.78524025 -283.13867188 389.50195312 C-284.33161865 389.35894775 -285.52456543 389.21594238 -286.75366211 389.06860352 C-423.55567119 372.59506315 -423.55567119 372.59506315 -455 338 C-455.91845703 337.01580078 -455.91845703 337.01580078 -456.85546875 336.01171875 C-460.93985896 331.17060066 -462.85282744 326.3560151 -463 320 C-461.27665505 303.90826653 -449.68090277 291.37090055 -437.6875 281.4375 C-435.79901614 279.94896153 -433.90289565 278.47007013 -432 277 C-430.99066406 276.19820312 -429.98132813 275.39640625 -428.94140625 274.5703125 C-407.94703247 257.98401008 -384.44120081 244.7739877 -361 232 C-301.91659134 199.77385106 -266.60746644 157.69750012 -238.75 96.4375 C-229.96104394 77.14621231 -219.25018094 60.40285541 -205.29638672 44.484375 C-204.08222746 43.09415121 -202.88611864 41.68822093 -201.69140625 40.28125 C-196.33013846 34.08855566 -190.43104088 29.04901203 -184 24 C-183.24460937 23.35546875 -182.48921875 22.7109375 -181.7109375 22.046875 C-158.93205929 2.79050373 -129.24227132 -9.2497378 -100 -14 C-99.24960449 -14.12246094 -98.49920898 -14.24492187 -97.72607422 -14.37109375 C-66.14449192 -19.22665121 -28.66252789 -14.84417234 0 0 Z M-123.12890625 106.54296875 C-127.34559315 112.27146996 -130.39671329 118.39607417 -133 125 C-133.4640625 126.14855469 -133.4640625 126.14855469 -133.9375 127.3203125 C-139.71301815 143.70279188 -137.17618923 161.56262742 -130 177 C-121.49276427 193.01736403 -108.06120899 203.22265939 -91 209 C-74.22848552 213.76350707 -56.59299267 211.26905808 -41 204 C-37.454305 201.90458927 -34.22080799 199.5622579 -31 197 C-30.29101562 196.45472656 -29.58203125 195.90945313 -28.8515625 195.34765625 C-23.46432702 190.9614971 -19.65912057 185.87705299 -16 180 C-15.60941406 179.37609375 -15.21882813 178.7521875 -14.81640625 178.109375 C-7.11974937 164.33325762 -5.80955614 146.93567435 -9.0625 131.6875 C-14.37476079 113.99643617 -25.49373735 99.48337485 -41.35546875 89.9921875 C-70.10835802 74.73815745 -102.30950572 81.67429032 -123.12890625 106.54296875 Z " fill="#131314" transform="translate(584,270)"/>
</svg>
